<svg width="79" height="59" viewBox="0 0 79 59" fill="none" xmlns="http://www.w3.org/2000/svg">
<g id="Capa_1" clip-path="url(#clip0_560_4838)">
<path id="Vector" d="M39.492 58.9997C28.7468 58.9997 18.0039 58.9997 7.2587 58.9997C2.83022 58.9997 0.0118771 56.1393 0.00720327 51.6454C0.00720327 50.9835 -0.0114922 50.3192 0.016551 49.6597C0.0586158 48.707 0.568067 48.1869 1.51452 48.1562C2.43995 48.1255 3.37005 48.1184 4.29547 48.1562C4.91242 48.1798 5.10405 47.9293 5.09237 47.3288C5.06433 45.7851 5.08302 44.2391 5.08302 42.6954C5.08302 31.7715 5.08302 20.8476 5.08302 9.92368C5.08302 6.83634 6.79132 5.11064 9.84102 5.11064C14.8584 5.11064 19.8758 5.10355 24.8932 5.12009C25.4985 5.12009 25.9705 4.95461 26.4519 4.56692C30.2635 1.50085 34.6265 -0.0451849 39.4827 -0.00026947C44.1869 0.044646 48.4144 1.58359 52.0998 4.56456C52.5812 4.95461 53.0579 5.11536 53.6632 5.113C58.8722 5.09882 64.0812 5.10118 69.2902 5.10591C72.1203 5.10827 73.894 6.89307 73.8963 9.75111C73.901 22.1383 73.8963 34.5232 73.8987 46.9104C73.8987 47.7315 74.2967 48.1428 75.0928 48.1444C75.8827 48.1444 76.6749 48.1278 77.4648 48.1538C78.3131 48.1822 78.9044 48.6314 78.9324 49.4091C78.9885 50.9197 79.1334 52.4421 78.7268 53.9337C77.8902 56.9951 75.3148 58.9903 72.1366 58.9926C61.2559 59.0021 50.3751 58.995 39.4944 58.9974L39.492 58.9997ZM39.4686 43.6599C48.1971 43.6599 56.9255 43.6576 65.6516 43.667C66.2289 43.667 66.6238 43.6552 66.6215 42.8562C66.5981 33.0055 66.6004 23.1572 66.6168 13.3065C66.6168 12.6446 66.3854 12.4508 65.7591 12.4579C63.5227 12.4862 61.2862 12.4933 59.0498 12.4555C58.2693 12.4413 58.2623 12.7014 58.5217 13.316C59.2812 15.1055 59.6995 16.9872 59.8163 18.9257C60.1014 23.5945 58.933 27.8922 56.4465 31.8212C51.172 40.1542 42.2449 43.225 33.2524 40.5915C27.6531 38.9509 23.7364 35.0858 21.1354 29.9111C18.4176 24.5023 17.8216 18.8808 20.1469 13.1363C20.4156 12.4744 20.1446 12.4626 19.6421 12.4673C17.5973 12.4791 15.5501 12.472 13.5053 12.472C12.7497 12.472 12.3711 12.8471 12.3696 13.5973C12.3696 23.2541 12.3696 32.9109 12.3696 42.5678C12.3696 43.2959 12.7287 43.6607 13.4469 43.6623C22.1193 43.6623 30.794 43.6623 39.4663 43.6623L39.4686 43.6599ZM39.4803 51.019C27.7302 51.019 15.9801 51.019 4.23004 51.019C3.95662 51.019 3.68553 51.0284 3.41211 51.0237C2.94005 51.0119 2.72038 51.2246 2.71103 51.7163C2.69701 52.3641 2.78815 52.9834 3.05456 53.5697C3.89118 55.4112 5.33541 56.1488 7.31713 56.1464C28.7725 56.1251 50.2279 56.1346 71.6856 56.1322C71.8772 56.1322 72.0665 56.1322 72.2581 56.1251C74.296 56.0448 75.9295 54.5649 76.2379 52.5224C76.4366 51.2081 76.2823 51.019 74.9783 51.019C63.1464 51.019 51.3146 51.019 39.4827 51.019H39.4803ZM22.9115 8.02778C22.6451 8.01123 22.4324 7.98523 22.2197 7.98523C18.046 7.98523 13.8746 7.9805 9.7008 7.98523C8.30799 7.98523 7.93174 8.38237 7.93174 9.83149C7.9294 22.2471 7.93642 34.6626 7.91305 47.0782C7.91305 47.9032 8.13038 48.1609 8.96934 48.1609C29.317 48.1396 49.6647 48.1396 70.0124 48.1609C70.8513 48.1609 71.071 47.9056 71.0686 47.0782C71.0453 34.6626 71.0546 22.2471 71.0499 9.83149C71.0499 8.35637 70.676 7.98523 69.1991 7.98523C65.217 7.9805 61.2348 7.98523 57.2527 7.98523C56.8718 7.98523 56.4885 7.97813 56.1076 7.99232C55.9347 7.99941 55.694 7.94977 55.7781 8.29254C55.9347 8.92609 56.769 9.59036 57.456 9.59273C60.7558 9.59509 64.0555 9.59036 67.3576 9.59509C68.942 9.59746 69.4398 10.0821 69.4421 11.6588C69.4468 22.5567 69.4468 33.4547 69.4421 44.3549C69.4421 45.9884 68.9981 46.4258 67.4184 46.4258C48.8164 46.4258 30.2144 46.4258 11.6124 46.4258C9.96955 46.4258 9.54189 46.005 9.54189 44.3195C9.53721 33.4476 9.53721 22.578 9.54189 11.7061C9.54189 10.075 10.0303 9.59746 11.6615 9.59509C14.6084 9.59036 17.5552 9.5289 20.4974 9.62582C21.7243 9.66601 22.4628 9.24759 22.9138 8.03014L22.9115 8.02778ZM38.7816 2.86723C30.3663 2.56937 21.5818 10.179 21.7243 20.2566C21.8645 30.0955 28.3846 38.3835 39.062 38.5065C48.9893 38.6199 56.9419 30.4264 56.9676 20.3299C56.9956 9.46743 47.5918 2.82704 38.7839 2.86723H38.7816ZM54.8293 20.7034C54.82 29.7338 48.0522 36.5065 39.0597 36.4829C30.6771 36.4616 23.6172 29.3343 23.6476 20.727C23.6803 11.7203 30.6748 4.77732 39.1976 4.88842C49.2183 5.01844 54.7498 12.3538 54.8293 20.7034ZM26.709 22.5662C26.9941 24.7127 27.7466 26.5826 28.8823 28.3083C29.123 28.6747 29.3147 28.6936 29.6559 28.4147C30.2635 27.9159 30.9318 27.7764 31.5838 28.3508C32.133 28.8355 32.1798 29.6061 31.6539 30.3697C31.3945 30.7455 31.3688 30.9748 31.7591 31.242C33.4323 32.3861 35.2458 33.1568 37.2532 33.457C37.6902 33.5232 37.8188 33.353 37.9239 32.9748C38.209 31.9583 38.6577 31.5375 39.3822 31.6037C40.2305 31.6817 40.6137 32.2396 40.6792 33.0433C40.7119 33.4287 40.8568 33.587 41.2494 33.5208C43.3012 33.1733 45.1731 32.4003 46.8627 31.1687C47.2016 30.9228 47.2343 30.7361 46.9679 30.3768C46.4 29.6037 46.4163 28.982 46.9258 28.4359C47.4563 27.8662 48.1013 27.8142 48.9075 28.391C49.3212 28.6889 49.4964 28.5707 49.7395 28.2185C50.8892 26.566 51.616 24.7458 51.9712 22.76C52.053 22.3038 51.9549 22.1052 51.4758 22.0485C50.7958 21.9658 50.312 21.5781 50.1438 20.8831C49.9661 20.1526 50.4662 19.4954 51.394 19.2401C51.7539 19.1408 52.0624 19.1266 51.9666 18.5735C51.6113 16.557 50.8682 14.7155 49.6904 13.0489C49.4544 12.7132 49.2557 12.6352 48.9005 12.9141C48.2742 13.4082 47.5965 13.4862 46.9679 12.9094C46.414 12.4011 46.4023 11.7487 46.9679 10.9C47.1945 10.5596 47.1595 10.4012 46.8534 10.1743C45.2152 8.96391 43.3877 8.21926 41.3989 7.85757C41.0087 7.78665 40.7306 7.85048 40.6628 8.36346C40.5647 9.1223 40.1557 9.64473 39.3284 9.66128C38.5082 9.67547 38.0899 9.1814 37.9239 8.42965C37.8234 7.96631 37.5944 7.78665 37.113 7.88121C35.2154 8.24999 33.4534 8.945 31.8456 10.0372C31.4576 10.3019 31.3548 10.5147 31.6586 10.9567C32.1751 11.7061 32.119 12.4059 31.6119 12.907C31.0931 13.42 30.406 13.4507 29.6909 12.8928C29.3497 12.6281 29.1698 12.6021 28.9221 12.9708C27.8074 14.6398 27.0525 16.4506 26.7487 18.4482C26.6833 18.8879 26.7207 19.1574 27.2488 19.259C27.9943 19.4008 28.4851 19.8855 28.4547 20.6963C28.422 21.5048 27.8985 21.935 27.146 22.0461C26.7487 22.1052 26.6108 22.2589 26.702 22.5591L26.709 22.5662ZM40.6815 16.6445C40.6815 15.2946 40.7049 13.9424 40.6722 12.5926C40.6511 11.7841 40.1393 11.2688 39.4219 11.2168C38.6273 11.16 38.0945 11.5785 37.9403 12.4271C37.8772 12.777 37.8655 13.1387 37.8632 13.4956C37.8538 15.1221 37.8445 16.7485 37.8632 18.3749C37.8702 18.973 37.6482 19.2212 37.0476 19.207C35.9048 19.1834 34.7574 19.1786 33.6146 19.2141C32.5957 19.2448 31.9367 19.8571 31.9577 20.6703C31.9788 21.5048 32.6284 22.0603 33.659 22.0698C35.4561 22.084 37.2556 22.0887 39.0527 22.0698C40.1767 22.0579 40.6698 21.5308 40.6815 20.3677C40.6932 19.1266 40.6838 17.8879 40.6838 16.6468C40.6838 16.6468 40.6792 16.6468 40.6768 16.6468L40.6815 16.6445Z" fill="url(#paint0_linear_560_4838)"/>
</g>
<defs>
<linearGradient id="paint0_linear_560_4838" x1="6.75159" y1="14.5098" x2="101.391" y2="66.6386" gradientUnits="userSpaceOnUse">
<stop offset="0.24" stop-color="#3737F8"/>
<stop offset="0.74" stop-color="#EB268E"/>
</linearGradient>
<clipPath id="clip0_560_4838">
<rect width="79" height="59" fill="white"/>
</clipPath>
</defs>
</svg>
