<svg width="54" height="59" viewBox="0 0 54 59" fill="none" xmlns="http://www.w3.org/2000/svg">
<g id="Capa_1" clip-path="url(#clip0_561_4850)">
<path id="Vector" d="M26.6075 48.7525C26.6208 48.7437 26.6407 48.7327 26.6607 48.7217C26.838 49.2827 27.3012 49.5907 27.9617 49.5907H29.2716C29.5663 49.5929 29.8611 49.5929 30.1537 49.5907C31.1444 49.5863 31.4547 49.3751 31.8138 48.4687L31.8559 48.3653C32.0908 47.7714 32.3346 47.1554 32.5585 46.5438C32.6294 46.3502 32.7269 46.2578 32.9153 46.205C33.9969 45.908 35.0851 45.4636 36.149 44.8828C36.3972 44.7464 36.5989 44.7442 36.8715 44.874C37.1774 45.0192 37.4899 45.1534 37.7913 45.2832C38.1105 45.4218 38.443 45.5648 38.7577 45.7166C39.4182 46.0312 40.0232 45.919 40.5574 45.38C41.7675 44.1613 42.8624 43.0767 43.9019 42.0603C44.425 41.5499 44.5336 40.9472 44.2255 40.2674C44.1213 40.0386 44.0216 39.8098 43.9219 39.581C43.7423 39.1696 43.5539 38.7428 43.3545 38.3292C43.2459 38.107 43.2503 37.9641 43.3766 37.7419C43.9219 36.7717 44.3674 35.7135 44.6954 34.5916C44.7774 34.3122 44.9104 34.1736 45.1874 34.0746C45.5509 33.9448 45.91 33.8084 46.269 33.6698C46.5549 33.5598 46.8408 33.4498 47.1268 33.3464C47.8138 33.0956 48.1773 32.5764 48.1751 31.8438C48.1751 30.2775 48.1751 28.7111 48.1751 27.1448C48.1751 26.4144 47.8116 25.8974 47.1223 25.6466C46.7899 25.5256 46.4618 25.4002 46.1316 25.2726C45.7991 25.145 45.4667 25.0174 45.132 24.8965C44.8949 24.8107 44.7818 24.6919 44.7153 24.4565C44.3984 23.3499 43.9374 22.2543 43.35 21.1984C43.2503 21.018 43.2459 20.9014 43.3345 20.7122C43.6005 20.149 43.8532 19.5704 44.0992 19.0094L44.2499 18.664C44.5979 17.8721 44.2964 17.3331 43.9817 17.0207L43.104 16.1473C42.2263 15.2739 41.3464 14.4028 40.4665 13.5316C40.0055 13.074 39.4536 12.9706 38.8729 13.2302C38.6092 13.349 38.3432 13.4656 38.075 13.58C37.6783 13.7516 37.2683 13.9298 36.8693 14.119C36.6034 14.2444 36.3995 14.24 36.1468 14.1036C35.0475 13.5096 33.9902 13.0784 32.9131 12.7858C32.7269 12.7352 32.6316 12.6428 32.5585 12.4448C32.3568 11.8992 32.1396 11.3493 31.9312 10.8191L31.7273 10.3021C31.4968 9.71252 31.0535 9.40232 30.4507 9.40232H29.6705C29.0809 9.40232 28.4914 9.40232 27.9041 9.40452C27.3056 9.40892 26.8624 9.70592 26.6873 10.2207C26.6806 10.2405 26.674 10.2581 26.6695 10.2713C26.654 10.2625 26.6341 10.2537 26.6119 10.2405C23.7417 8.58175 20.5324 9.37813 18.808 12.1764C18.6883 12.37 18.5576 12.4646 18.3093 12.535C16.882 12.9376 15.7804 13.7934 15.0357 15.0782C14.8894 15.3289 14.752 15.4147 14.4484 15.4433C11.8375 15.6875 10.0045 17.1967 9.28864 19.6892C9.24431 19.841 9.18003 19.9158 9.00716 20.0082C7.24956 20.9608 6.10813 22.5293 5.87319 24.3135C5.63825 26.1064 6.34528 27.928 7.81474 29.3095C7.95216 29.4393 7.97875 29.4921 7.97654 29.4877C7.97432 29.4965 7.95216 29.5493 7.81253 29.6813C6.34528 31.0651 5.63825 32.8866 5.87319 34.6752C6.10591 36.4549 7.24956 38.0235 9.00716 38.9804C9.18003 39.0728 9.24431 39.1476 9.28864 39.3016C10.0156 41.8271 11.7998 43.2945 14.4506 43.5453C14.7542 43.5739 14.8917 43.6597 15.0379 43.9127C15.7826 45.1974 16.8864 46.051 18.3138 46.4536C18.5576 46.5218 18.6905 46.6186 18.8102 46.8144C19.9317 48.6315 21.6849 49.6039 23.5666 49.6039C24.5728 49.6039 25.6167 49.3267 26.6185 48.7503L26.6075 48.7525ZM21.1884 42.5179C21.2327 42.4519 21.2793 42.3859 21.328 42.3221C21.3967 42.2297 21.4677 42.1329 21.5319 42.0251C21.922 41.374 21.809 40.6964 21.2372 40.2608C20.9911 40.0716 20.7207 39.9792 20.4503 39.9792C20.0913 39.9792 19.7345 40.1442 19.4397 40.4676C18.7526 41.22 18.3138 42.1571 18.1364 43.2527C18.1254 43.3143 18.1231 43.3847 18.1231 43.4529C18.1231 43.4683 18.1231 43.4837 18.1231 43.5013C18.0921 43.4749 18.0567 43.4419 18.0323 43.4199C17.9968 43.3869 17.9614 43.3539 17.9259 43.3253C17.5491 43.0107 17.2632 42.5773 17.0504 42.0031C16.6603 40.9516 16.257 40.7118 15.1687 40.8768C13.9275 41.0682 12.662 40.428 12.0879 39.3192C11.5427 38.2676 11.771 37.0731 12.6952 36.1271C12.7196 36.1029 12.744 36.0787 12.7684 36.0545C12.8326 35.9929 12.8991 35.9269 12.9612 35.8499C13.3912 35.3197 13.3734 34.5674 12.9213 34.0966C12.4736 33.6324 11.7555 33.5686 11.2147 33.9448C10.5054 34.4376 9.97128 35.1327 9.58785 36.0677C9.56125 36.1293 9.54131 36.1733 9.52357 36.1997C9.49476 36.1777 9.45265 36.1425 9.39724 36.0853C8.5661 35.2515 8.31564 34.2902 8.63037 33.1462C8.9584 31.9626 9.7563 31.2103 11.0063 30.9067C11.3078 30.8341 11.6491 30.7967 12.048 30.7945C14.2378 30.7857 16.4653 30.7879 18.6196 30.7901H18.91C18.91 30.7901 18.9144 30.7901 18.9166 30.7901C18.8922 30.8253 18.8656 30.8627 18.8435 30.9045C18.4201 31.6678 18.5576 32.4202 19.1914 32.8228C19.4862 33.0098 19.8253 33.0736 20.1511 33.0032C20.5191 32.9218 20.8515 32.6732 21.0887 32.2992C21.6317 31.4501 22.3321 30.9881 23.294 30.8473C24.083 30.7307 24.9407 30.9903 25.5901 31.5359C26.1819 32.0352 26.5144 32.693 26.5255 33.386C26.5831 37.3899 26.5565 41.3849 26.5277 44.4187C26.5166 45.4636 25.6389 46.5064 24.482 46.8452C23.3073 47.1906 22.0417 46.7858 21.3347 45.842C20.5833 44.841 20.5279 43.5321 21.1951 42.5091L21.1884 42.5179ZM12.908 24.9097C13.42 24.3883 13.369 23.5699 12.7861 22.9627C11.7643 21.8979 11.5228 20.7166 12.1057 19.6386C12.7263 18.4902 13.9297 17.9359 15.3239 18.1581C16.1705 18.2923 16.7135 17.9689 16.9884 17.1659C17.2322 16.4509 17.5668 15.9449 18.0389 15.5709C18.0677 15.5467 18.0943 15.5291 18.1143 15.5137C18.1187 15.5357 18.1209 15.5621 18.1231 15.5929C18.214 16.5565 18.5952 17.4739 19.2579 18.3231C19.832 19.06 20.5856 19.2206 21.2239 18.741C21.8666 18.2593 21.9287 17.5377 21.3923 16.7633C20.8471 15.9757 20.6343 15.0958 20.7895 14.2796C20.9269 13.5624 21.3347 12.9596 21.9664 12.5372C22.9527 11.8772 23.9722 11.8201 25.0028 12.3634C26.0157 12.898 26.5299 13.734 26.5343 14.8472C26.5498 18.3693 26.5498 21.9045 26.5343 25.3584C26.5299 26.5926 25.7098 27.6684 24.4953 28.038C23.2607 28.4119 21.9863 27.9742 21.2438 26.9248C20.5789 25.981 19.8874 25.7236 19.1914 26.157C18.245 26.7466 18.6573 27.719 18.9233 28.2074C17.9636 28.1854 17.0105 28.2008 16.0841 28.2162C14.3619 28.2425 12.7351 28.2668 11.0906 28.082C9.58342 27.9104 8.93623 26.8324 8.65697 25.9568C8.29126 24.8063 8.52398 23.7965 9.34626 22.9583C9.41054 22.8923 9.46373 22.8395 9.50806 22.8021C9.53244 22.8483 9.56347 22.9121 9.59671 22.9869C9.95799 23.7745 10.4123 24.3971 10.9864 24.8855C11.607 25.4156 12.396 25.4244 12.9058 24.9075L12.908 24.9097ZM41.4373 18.4726C41.3176 18.7322 41.2046 18.9918 41.0893 19.2536C40.9386 19.5968 40.7835 19.951 40.6217 20.292C40.3491 20.864 40.3734 21.3964 40.6992 21.9221C41.4439 23.1255 41.9958 24.4389 42.3349 25.827C42.4923 26.465 42.8824 26.8852 43.5296 27.1096C43.8044 27.2064 44.077 27.312 44.3496 27.4176C44.6422 27.5298 44.9414 27.6464 45.245 27.752C45.4445 27.8202 45.4933 27.8928 45.4911 28.104C45.4733 29.1291 45.4755 30.0355 45.4911 30.8759C45.4955 31.1025 45.4379 31.1817 45.2074 31.2609C44.8838 31.3709 44.5624 31.4963 44.2499 31.6172C43.9972 31.7162 43.7423 31.813 43.4875 31.9054C42.8669 32.1254 42.4923 32.5346 42.3394 33.155C41.9958 34.552 41.4351 35.8829 40.6771 37.1149C40.3756 37.6033 40.3468 38.1136 40.5862 38.635C40.7081 38.8968 40.8234 39.1608 40.9386 39.4248C41.0871 39.7658 41.2423 40.1178 41.4063 40.461C41.4994 40.6546 41.4861 40.7294 41.3309 40.8768C40.6638 41.5103 39.9989 42.1703 39.3539 42.8369C39.1965 43.0019 39.1012 43.0151 38.8796 42.9073C38.4939 42.7203 38.0972 42.5487 37.716 42.3815C37.5254 42.2979 37.337 42.2165 37.1464 42.1307C36.5945 41.8843 36.0581 41.9085 35.5572 42.2055C34.3094 42.9447 32.9242 43.5101 31.4436 43.8841C30.925 44.0161 30.5593 44.3505 30.3554 44.8806C30.2756 45.0896 30.1936 45.2986 30.1116 45.5076C29.9453 45.9322 29.7725 46.37 29.6151 46.8056C29.553 46.9772 29.491 47.0344 29.2649 47.008C29.2472 47.008 29.2361 47.0036 29.225 47.0014C29.2206 46.964 29.225 46.9002 29.225 46.8584C29.225 46.8144 29.2295 46.7726 29.2295 46.7308C29.2272 45.776 29.2272 44.8234 29.2272 43.8687C29.2272 42.5311 29.2272 41.1958 29.2206 39.8604C29.2206 39.636 29.2206 39.6118 29.4799 39.5634C34.0301 38.7362 37.2239 35.5661 38.0241 31.0849C38.9572 25.86 35.2957 20.5692 30.0273 19.533C29.6483 19.4582 29.3469 19.3988 29.2871 19.3262C29.2272 19.2536 29.2272 18.9544 29.2272 18.5738V14.7812C29.2272 13.9518 29.225 13.1224 29.2317 12.293C29.2317 12.2468 29.2294 12.1984 29.2272 12.1478C29.225 12.106 29.2206 12.0422 29.225 12.0048C29.2339 12.0048 29.245 12.0004 29.2583 11.9982C29.4533 11.9696 29.5464 11.996 29.6306 12.2336C29.7702 12.634 29.9298 13.0322 30.0805 13.4172C30.1714 13.646 30.2623 13.8748 30.3487 14.1058C30.5548 14.6492 30.956 14.999 31.5389 15.1486C33.0173 15.5247 34.2739 16.0351 35.3777 16.7083C36.0227 17.0999 36.6699 17.1263 37.3591 16.7875C37.6451 16.6467 37.9443 16.5169 38.2346 16.3915C38.4806 16.2837 38.7267 16.1781 38.9705 16.0615C39.1212 15.9911 39.1832 15.9999 39.3007 16.1187C40.0742 16.8997 40.7591 17.5795 41.3974 18.1977C41.4838 18.2813 41.5038 18.3209 41.4329 18.477L41.4373 18.4726ZM29.2339 24.9383C29.2294 24.5885 29.2339 24.2387 29.2339 23.8889C29.2383 23.3851 29.2405 22.8637 29.225 22.3489C29.2184 22.1531 29.2516 22.1003 29.2516 22.0981C29.256 22.0981 29.3181 22.0717 29.5242 22.1113C32.3878 22.6789 34.91 25.2792 35.3932 28.1612C36.0648 32.1584 33.5957 35.8873 29.6528 36.8355C29.5752 36.8531 29.3624 36.9059 29.256 36.9103C29.2339 36.8025 29.2339 36.5693 29.2339 36.4857C29.2339 36.1601 29.2339 35.8345 29.2339 35.5067V35.0799V34.9809C29.2516 33.826 29.2716 32.6314 28.7418 31.4918C28.3628 30.6757 27.893 30.0421 27.3056 29.5559C27.2746 29.5295 27.2524 29.5097 27.2347 29.4943C27.248 29.4811 27.2635 29.4657 27.2857 29.4481C28.6 28.3085 29.256 26.7906 29.2339 24.9361V24.9383ZM15.3172 52.3076C15.0645 52.7102 14.6589 52.9302 14.2267 52.9302C14.0273 52.9302 13.8234 52.884 13.6261 52.7872C13.2537 52.6046 12.8592 52.3758 12.4182 52.0832C5.39445 47.4414 1.30522 41.0748 0.267952 33.1616C-0.97544 23.6755 2.09869 15.6017 9.40832 9.16473C13.103 5.91103 17.6089 3.83209 22.8019 2.98512C24.79 2.66173 26.8291 2.67713 28.5823 2.71673C28.5889 2.71673 28.5933 2.71673 28.6 2.71673C28.4737 2.59793 28.3495 2.47914 28.2276 2.35814C27.6093 1.73776 27.5384 0.976581 28.0481 0.422198C28.2875 0.162606 28.6022 0.0108108 28.9369 -0.00018889C29.3115 -0.0111886 29.6927 0.145007 30.014 0.446398C31.2486 1.60356 32.3213 2.63533 33.2921 3.6011C33.6245 3.93109 33.7841 4.32488 33.742 4.70767C33.6999 5.09706 33.4517 5.45784 33.0438 5.71964C31.8692 6.47421 30.6036 7.26179 29.1763 8.12636C28.8239 8.33976 28.4316 8.40796 28.0703 8.31996C27.7423 8.24076 27.463 8.03617 27.2857 7.74578C26.8978 7.11219 27.0973 6.37522 27.7822 5.91103C28.0481 5.73064 28.3141 5.56124 28.6066 5.37865C28.6066 5.37865 28.6022 5.37865 28.6 5.37865C27.9373 5.32805 27.3123 5.27965 26.6961 5.29065C15.049 5.53264 5.36342 13.4986 3.1426 24.6611C1.55567 32.638 3.6014 39.823 9.22658 46.0224C10.6983 47.6438 12.4448 49.0451 14.5659 50.3035L14.588 50.3167C14.7254 50.3981 14.8651 50.4817 14.998 50.5895C15.5433 51.0317 15.6785 51.74 15.3216 52.3076H15.3172ZM44.5868 49.8305C40.6372 53.3064 35.8121 55.4293 30.2468 56.1421C28.8106 56.3269 27.3566 56.3071 25.9492 56.2873L25.4173 56.2807C25.4173 56.2807 25.404 56.2807 25.3973 56.2807C25.5525 56.4259 25.7076 56.5755 25.8561 56.7295C26.4213 57.3235 26.4346 58.1044 25.8916 58.6302C25.6345 58.8788 25.322 59.002 25.0028 59.002C24.6637 59.002 24.3202 58.8634 24.0254 58.5884C22.7909 57.4291 21.7181 56.3995 20.7451 55.4381C20.2886 54.9893 20.2287 54.5625 20.2575 54.2854C20.2863 54.0104 20.4304 53.6144 20.9557 53.2756C22.1481 52.51 23.4114 51.7224 24.8233 50.8689C25.1779 50.6555 25.5702 50.5851 25.9315 50.6753C26.2595 50.7545 26.5365 50.9613 26.7139 51.2538C27.0973 51.8896 26.9022 52.609 26.2196 53.0864C26.0556 53.2008 25.8849 53.3064 25.7187 53.4054C25.6323 53.4582 25.5436 53.511 25.4594 53.566C25.4306 53.5836 25.4018 53.6034 25.3729 53.621C25.3973 53.621 25.4239 53.6254 25.4483 53.6276C26.111 53.6826 26.7382 53.7354 27.3544 53.7024C37.6517 53.1524 45.0722 48.1915 49.4096 38.9562C50.5067 36.6221 51.1406 33.947 51.3002 31.0057C51.6814 23.9241 49.3232 17.6851 44.2898 12.4624C42.9489 11.0721 41.3486 9.82251 39.5312 8.75114C38.9439 8.40355 38.607 8.03397 38.5028 7.61598C38.4252 7.30799 38.4829 6.9934 38.6735 6.68321C38.8619 6.37522 39.1145 6.18382 39.4226 6.11122C39.8415 6.01223 40.3291 6.14202 40.9164 6.50721C48.3258 11.1095 52.6367 17.6125 53.7271 25.8336C54.9861 35.3175 51.9119 43.3913 44.5912 49.8305H44.5868ZM14.5747 24.2211C15.1554 21.7263 17.3829 19.984 19.9916 19.9796C21.2837 19.9422 22.4894 20.3712 23.5688 21.2512C23.9345 21.5504 24.1539 21.8759 24.2249 22.2235C24.298 22.5865 24.196 22.9473 23.9323 23.2663C23.4403 23.8603 22.6512 23.8823 21.922 23.3235C21.0421 22.6503 20.0115 22.4347 19.0939 22.7295C18.1697 23.0287 17.4582 23.8141 17.1413 24.8855C16.9263 25.6136 16.4187 26.0536 15.827 26.0536C15.7339 26.0536 15.6386 26.0426 15.5411 26.0206C14.7432 25.8336 14.3642 25.1274 14.5747 24.2189V24.2211ZM23.6818 37.6407C22.6002 38.5668 21.3967 39.0156 20.0026 39.0156C19.9605 39.0156 19.9184 39.0156 19.8763 39.0156H19.8697C17.3297 39.0156 15.0956 37.1941 14.5526 34.6818C14.3752 33.8612 14.7587 33.1792 15.5034 32.9834C15.8425 32.8954 16.1927 32.946 16.4875 33.1286C16.8066 33.3244 17.0283 33.6544 17.1103 34.0526C17.323 35.0843 18.0522 35.9005 19.0585 36.2349C20.0736 36.5715 21.164 36.3471 21.9774 35.6343C22.2811 35.3681 22.6446 35.2361 23.0125 35.2559C23.3538 35.2779 23.6708 35.4363 23.9035 35.7003C24.1473 35.9775 24.2647 36.2987 24.2404 36.6309C24.2138 36.9983 24.0209 37.3481 23.6774 37.6407H23.6818Z" fill="url(#paint0_linear_561_4850)"/>
</g>
<defs>
<linearGradient id="paint0_linear_561_4850" x1="1.82607" y1="11.3273" x2="64.0602" y2="56.9352" gradientUnits="userSpaceOnUse">
<stop offset="0.21" stop-color="#3737F8"/>
<stop offset="0.82" stop-color="#EB268E"/>
</linearGradient>
<clipPath id="clip0_561_4850">
<rect width="54" height="59" fill="white"/>
</clipPath>
</defs>
</svg>
