<svg width="57" height="59" viewBox="0 0 57 59" fill="none" xmlns="http://www.w3.org/2000/svg">
<g id="Capa_1" clip-path="url(#clip0_561_4858)">
<path id="Vector" d="M56.5826 24.6772C55.5833 18.8073 52.5057 13.3025 47.9173 9.18028C43.3243 5.05339 37.5209 2.58054 31.5696 2.21557C31.0207 2.18282 30.941 2.0986 30.9644 1.57923C30.9855 1.07857 30.8753 0.706592 30.629 0.439888C30.3733 0.166166 29.9839 0.0234561 29.442 0.00707959C27.9735 -0.037371 26.5121 0.124055 25.1516 0.308876C24.4056 0.409475 23.9271 0.851641 23.7347 1.62602C23.6221 2.07754 23.5025 2.52907 23.3829 2.98059C23.2327 3.54207 23.0779 4.12227 22.9395 4.70013C22.8644 5.00894 22.7378 5.1423 22.4352 5.22886C20.6805 5.72951 19.0221 6.41265 17.509 7.25721C17.1759 7.44203 16.9343 7.43267 16.5918 7.22212C16.0007 6.85715 15.3908 6.50389 14.802 6.15998C14.5018 5.98686 14.2038 5.81139 13.9059 5.63593C13.2608 5.25459 12.6322 5.28501 12.0387 5.72717C9.67415 7.48648 7.58172 9.56396 5.8177 11.9081C5.30397 12.5913 5.27817 13.2768 5.73559 14.009C6.0124 14.4488 6.27747 14.9074 6.5355 15.3519C6.76774 15.7496 7.007 16.1637 7.25566 16.5638C7.45974 16.8913 7.47147 17.1159 7.30023 17.42C6.43229 18.9735 5.74028 20.6485 5.24063 22.3962C5.15853 22.6816 5.02013 22.8056 4.69407 22.8851C4.21553 23.0021 3.73934 23.1284 3.26315 23.2547C2.74473 23.3928 2.20989 23.5355 1.67975 23.6595C0.861072 23.8537 0.405992 24.3707 0.288703 25.241C-0.0983502 28.1092 -0.0983502 30.9611 0.288703 33.7217C0.429449 34.7207 0.757858 35.102 1.69148 35.3477L2.41398 35.5395C3.16462 35.7384 3.93873 35.9442 4.70814 36.1314C5.02013 36.2063 5.15619 36.3349 5.24298 36.6344C5.74263 38.375 6.42525 40.029 7.27442 41.5497C7.46208 41.8866 7.45505 42.1275 7.24393 42.4644C6.9554 42.9277 6.6786 43.4026 6.40883 43.8658C6.17425 44.2659 5.93498 44.6799 5.68868 45.08C5.26878 45.7631 5.30163 46.4112 5.7872 47.0616C7.49962 49.359 9.57094 51.4271 11.9402 53.2121C12.6228 53.7268 13.3124 53.7525 14.0467 53.294C14.4994 53.0109 14.9709 52.7395 15.4283 52.4752C15.8365 52.2389 16.2564 51.9956 16.6669 51.7453C16.9531 51.5698 17.1619 51.5675 17.4668 51.7359C19.0314 52.5992 20.6876 53.2823 22.3929 53.7689C22.7307 53.8648 22.8691 54.0076 22.9465 54.3351C23.0943 54.9668 23.2632 55.6008 23.4274 56.2137C23.533 56.6114 23.6409 57.0115 23.7418 57.4115C23.9365 58.1766 24.4197 58.614 25.1797 58.7076C26.3151 58.8503 27.5935 59.0094 28.8907 59.0094C28.9682 59.0094 29.0479 59.0094 29.1277 59.0094C30.5633 58.986 30.9621 58.6023 30.9761 57.2197C30.9808 56.8735 31.0184 56.829 31.3257 56.815C32.2171 56.7729 33.1882 56.6559 34.3775 56.4477C40.7111 55.3387 46.4841 51.9909 50.629 47.0195C54.7717 42.0503 57.0307 35.7734 56.9908 29.3585C57.0447 28.1092 56.9157 26.626 56.585 24.6912L56.5826 24.6772ZM12.8668 50.3322C11.3631 49.1227 9.96034 47.726 8.69831 46.1796C8.52472 45.9667 8.52237 45.8544 8.68658 45.5877C8.97511 45.1174 9.2566 44.6355 9.52871 44.1699C9.77267 43.7488 10.019 43.33 10.2723 42.9136C10.6523 42.289 10.6523 41.6807 10.2747 41.0537C9.10178 39.1072 8.25496 37.0625 7.75296 34.978C7.57703 34.2528 7.12898 33.8106 6.37834 33.6281C5.95844 33.5252 5.53151 33.4105 5.121 33.2982C4.59086 33.1555 4.04194 33.0058 3.49303 32.8818C3.14586 32.8023 3.02153 32.6759 2.98869 32.3578C2.7893 30.4838 2.79165 28.5537 2.99338 26.6236C3.02388 26.3265 3.13647 26.2072 3.45081 26.1347C3.99034 26.0083 4.53456 25.8633 5.05766 25.7206C5.49632 25.6036 5.95141 25.4796 6.39945 25.372C7.13368 25.1942 7.57937 24.7474 7.75765 24.0057C8.25496 21.9423 9.09474 19.9186 10.2536 17.9909C10.6476 17.3358 10.65 16.7065 10.2606 16.0701C10.0049 15.6537 9.75625 15.2232 9.51464 14.8091C9.24487 14.3436 8.96573 13.864 8.67485 13.3961C8.52238 13.1504 8.52941 13.0334 8.71473 12.8065C9.93219 11.3116 11.3185 9.92892 12.8316 8.696C13.0708 8.50183 13.1975 8.49715 13.4813 8.67261C13.9857 8.98376 14.5041 9.28556 15.0061 9.57566C15.3932 9.80025 15.7802 10.0248 16.1626 10.2541C16.7654 10.6167 17.373 10.6191 17.9688 10.2611C19.9346 9.08436 22.0035 8.23044 24.1218 7.71809C24.8161 7.54965 25.2571 7.10514 25.4354 6.39627C25.5246 6.04534 25.6207 5.69442 25.7169 5.34583C25.8764 4.77031 26.0406 4.17374 26.165 3.57717C26.2494 3.16541 26.4206 3.02036 26.8945 2.95252C27.4364 2.87531 27.9477 2.80513 28.0674 2.90807C28.187 3.01101 28.187 3.53973 28.187 4.04741V12.2216C28.187 12.5866 28.187 12.8744 28.126 12.9422C28.065 13.0124 27.7648 13.0545 27.4153 13.1013C24.0209 13.5598 21.0559 14.9121 18.6045 17.1159C14.9944 20.3608 13.1131 24.4736 13.0098 29.3398C12.8456 37.1116 18.316 43.9758 26.0195 45.6602C26.6177 45.7912 27.2534 45.8988 27.9079 45.9831C28.1659 46.0158 28.1894 46.0626 28.1894 46.2708C28.1823 49.2116 28.1823 52.3465 28.1894 55.8604C28.1894 56.0172 28.1542 56.0616 28.1424 56.071C28.1331 56.0804 28.0861 56.1108 27.936 56.0991C27.9055 56.0991 27.875 56.0991 27.8445 56.0991C26.8468 56.1193 26.2213 55.6452 25.9679 54.6767L25.8342 54.169C25.6958 53.6426 25.5574 53.1185 25.4284 52.5898C25.2571 51.8997 24.8326 51.4669 24.164 51.3031C22.034 50.7861 19.944 49.9204 17.9477 48.732C17.6639 48.5635 17.373 48.477 17.0821 48.477C16.7725 48.477 16.4581 48.5729 16.1438 48.7624C15.7286 49.0127 15.3064 49.2584 14.8865 49.5017C14.3985 49.7847 13.8942 50.0772 13.4016 50.379C13.1834 50.5123 13.0779 50.503 12.8668 50.3345V50.3322ZM26.6998 16.0959C27.4317 15.9415 28.194 15.8783 28.9306 15.8175C29.1159 15.8011 29.3013 15.787 29.4866 15.7707C30.5257 15.6771 30.9738 15.1998 30.9785 14.1775C30.9832 13.3142 30.9832 12.4509 30.9832 11.5876C30.9832 11.0308 30.9832 10.4764 30.9832 9.91957C30.9832 9.7558 30.9832 9.454 31.0207 9.4002C31.0442 9.38616 31.1028 9.38148 31.1755 9.38148C31.3163 9.38148 31.511 9.4002 31.6142 9.41189C34.7552 9.72773 37.6264 10.6916 40.1434 12.2801C45.7616 15.8245 48.9753 20.8661 49.6954 27.2647C50.9152 38.1013 43.139 48.0699 32.3625 49.4853C31.701 49.5719 31.2224 49.635 31.1028 49.5321C30.9855 49.4291 30.9855 48.9495 30.9855 48.2898V47.0054C30.9855 46.7644 30.9855 46.5211 30.9855 46.2802C30.9855 45.7772 30.9879 45.2742 30.9808 44.7735C30.9644 43.7675 30.4929 43.2809 29.4936 43.2411C26.0617 43.1031 23.2374 42.0691 20.8635 40.0805C17.9055 37.6029 16.2376 34.4119 15.9069 30.5985C15.3157 23.7507 19.9557 17.5159 26.6998 16.0982V16.0959ZM30.9902 52.6366C31.0395 52.5688 31.1779 52.4822 31.5696 52.4471C36.3996 52.0143 40.6783 50.262 44.2908 47.244C49.0902 43.2318 51.8559 38.1293 52.5104 32.077C53.2915 24.8573 51.0982 18.543 45.9938 13.3142C42.2499 9.47974 37.5983 7.22913 32.1654 6.6232C32.1045 6.61618 32.0458 6.60683 31.9848 6.59747L31.9074 6.58577C31.4617 6.52026 31.1403 6.47113 31.0582 6.37989C30.9785 6.29099 30.9761 5.99154 30.9738 5.54001V5.46047C30.9738 5.28501 30.9973 5.16101 31.0465 5.11656C31.0747 5.09083 31.145 5.06041 31.3092 5.06041C31.3421 5.06041 31.3796 5.06041 31.4218 5.06509C34.1617 5.23821 36.7514 5.85818 39.1183 6.90862C46.9133 10.3664 51.7761 16.2011 53.573 24.2514C55.0485 30.8652 53.7818 37.5842 50.0098 43.171C46.2518 48.732 40.2936 52.5594 33.6597 53.6707C33.0944 53.7642 32.4258 53.8672 31.7432 53.914C31.4875 53.9304 31.1028 53.9561 31.0489 53.907C30.9879 53.8508 30.9902 53.4578 30.9902 53.0764L30.9832 53.0179C30.941 52.8355 30.9456 52.7068 30.9973 52.6366H30.9902ZM29.5827 35.2166C32.6698 35.2166 35.1845 32.8397 35.3064 29.8077C35.3182 29.5129 35.4097 29.2532 35.609 28.9421L36.1627 28.0858C36.9673 26.8412 37.8 25.5521 38.6069 24.2795C39.4374 22.9693 40.2678 21.6288 41.0724 20.3327L41.5415 19.577C41.9731 18.8846 41.9239 18.2201 41.4031 17.7078C41.0419 17.3498 40.4226 17.041 39.5288 17.5861L39.2802 17.7382C39.1113 17.8411 38.9424 17.9417 38.7758 18.047L35.4472 20.1502C33.716 21.2428 31.9872 22.3377 30.256 23.4302C29.9323 23.6361 29.6742 23.7811 29.3364 23.7975C26.0711 23.9472 23.7676 26.4973 23.8614 29.8639C23.9435 32.8163 26.5098 35.2166 29.5851 35.219L29.5827 35.2166ZM32.4939 29.4264C32.5244 30.1961 32.2358 30.9377 31.6775 31.5132C31.1216 32.0887 30.3615 32.4186 29.5898 32.4186H29.5804C28.8227 32.4163 28.0674 32.0864 27.5067 31.5155C26.9555 30.9541 26.6458 30.2101 26.6599 29.4778C26.674 28.6918 27.0188 27.9291 27.6029 27.3816C28.1471 26.874 28.8344 26.6002 29.5546 26.6002C29.6015 26.6002 29.6461 26.6002 29.693 26.6026C30.2701 26.633 30.7674 26.4879 31.3045 26.1394C32.9255 25.0842 34.5276 24.0642 35.7428 23.2922C35.792 23.2594 35.8436 23.2267 35.8929 23.1916C35.914 23.1775 35.9375 23.1612 35.9586 23.1471L35.4519 23.9332C34.6004 25.2574 33.7958 26.509 32.9747 27.7606C32.6158 28.3104 32.4657 28.8228 32.4915 29.4264H32.4939ZM42.0787 39.3506C43.1624 37.9188 43.9624 36.4823 44.5253 34.9593C44.6145 34.716 44.6919 34.461 44.7693 34.213C44.8561 33.9323 44.9429 33.6398 45.0531 33.3567C45.3229 32.6525 45.9938 32.2946 46.721 32.4654C47.4013 32.6245 47.8118 33.2515 47.7649 34.0633L47.7578 34.1124C47.7461 34.1568 47.7344 34.2083 47.7203 34.2668C47.6851 34.4212 47.6405 34.6131 47.5842 34.8049C46.9063 37.0508 45.8531 39.1072 44.4503 40.9133L44.4315 40.9391C44.394 40.9882 44.3541 41.0373 44.3142 41.0841C43.96 41.4842 43.5378 41.6901 43.1155 41.6901C42.827 41.6901 42.5408 41.5941 42.2828 41.3976C41.6283 40.9016 41.5462 40.0594 42.0834 39.3506H42.0787ZM45.534 29.4778C45.5387 29.0895 45.6888 28.7362 45.9563 28.4835C46.226 28.2285 46.5873 28.0952 46.9861 28.1139C47.7531 28.1443 48.3255 28.7502 48.3138 29.5223C48.3091 29.9106 48.1589 30.2639 47.8915 30.5166C47.6358 30.7575 47.2957 30.8886 46.9251 30.8886C46.904 30.8886 46.8828 30.8886 46.8617 30.8886C46.0947 30.8581 45.5246 30.2522 45.534 29.4802V29.4778Z" fill="url(#paint0_linear_561_4858)"/>
</g>
<defs>
<linearGradient id="paint0_linear_561_4858" x1="8.45904" y1="14.2921" x2="66.0445" y2="59.7652" gradientUnits="userSpaceOnUse">
<stop offset="0.21" stop-color="#3737F8"/>
<stop offset="0.86" stop-color="#EB268E"/>
</linearGradient>
<clipPath id="clip0_561_4858">
<rect width="57" height="59" fill="white"/>
</clipPath>
</defs>
</svg>
