<svg width="279" height="183" viewBox="0 0 279 183" fill="none" xmlns="http://www.w3.org/2000/svg">
<path d="M11.5024 28.6938H26.0044L26.8174 29.5068V34.187L26.0044 35H11.5024V28.6938ZM26.0044 3.49121L26.8174 4.3042V9.02832L26.0044 9.79736H11.5464V3.49121H26.0044ZM19.4785 16.2354L20.2915 17.0483V21.4209L19.4785 22.2119H10.1621V35H2.95508L2.14209 34.231V4.3042L2.95508 3.49121H10.1621V16.2354H19.4785Z" fill="white"/>
<path d="M49.3613 2.37061L50.1523 1.60156H56.3267L57.1396 2.37061V34.187L56.3267 35H50.1523L49.3613 34.187V2.37061ZM41.9346 10.5664C44.3955 10.5664 46.3877 11.1377 47.9111 12.2803V17.8613C46.8271 17.1143 45.6553 16.7407 44.3955 16.7407C42.5352 16.7407 41.0703 17.2974 40.001 18.4106C38.9463 19.5093 38.4189 20.9888 38.4189 22.8491C38.4189 24.7681 38.9463 26.2842 40.001 27.3975C41.0703 28.5107 42.5352 29.0674 44.3955 29.0674C45.6846 29.0674 46.8418 28.7085 47.8672 27.9907V33.5498C46.2705 34.751 44.2417 35.3516 41.7808 35.3516C38.4263 35.3516 35.731 34.231 33.6948 31.9897C31.6587 29.7339 30.6406 26.7456 30.6406 23.0249C30.6406 19.187 31.666 16.1548 33.7168 13.9282C35.7822 11.687 38.5215 10.5664 41.9346 10.5664Z" fill="white"/>
<path d="M85.8359 10.7422L86.6489 11.5112V34.187L85.8359 35H79.6836L78.8706 34.187V11.5112L79.6836 10.7422H85.8359ZM77.4204 27.7051V33.418C75.6479 34.7656 73.4287 35.4614 70.7627 35.5054C68.0967 35.5054 65.9507 34.6558 64.3247 32.9565C62.7134 31.2573 61.9077 29.0015 61.9077 26.189V11.5112L62.6987 10.7422H68.873L69.686 11.5112L69.6421 24.0137C69.6421 25.4785 70.0229 26.6138 70.7847 27.4194C71.5464 28.2104 72.5864 28.606 73.9048 28.606C75.106 28.606 76.2778 28.3057 77.4204 27.7051Z" fill="white"/>
<path d="M105.699 28.9795C108.673 28.9795 111.236 28.5986 113.39 27.8369L113.983 28.3862L113.697 33.4619L113.082 34.231C110.929 34.9194 108.299 35.2637 105.194 35.2637C95.4087 35.2637 90.5234 31.1548 90.5381 22.937C90.5381 19.2163 91.6074 16.2573 93.7461 14.0601C95.8848 11.8481 98.7998 10.6543 102.491 10.4785V16.7407C99.708 17.0776 98.3164 18.916 98.3164 22.2559V22.7612C98.3164 26.9067 100.777 28.9795 105.699 28.9795ZM103.854 16.6748V10.4785C107.091 10.5957 109.662 11.5112 111.566 13.2251C113.47 14.939 114.422 17.1582 114.422 19.8828L113.609 20.6958H107.545L106.732 19.8828C106.732 17.9199 105.772 16.8506 103.854 16.6748Z" fill="white"/>
<path d="M125.387 22.8491C125.387 24.7681 125.921 26.2842 126.991 27.3975C128.06 28.5107 129.525 29.0674 131.385 29.0674C132.704 29.0674 133.868 28.7085 134.879 27.9907V33.5059C133.282 34.7363 131.246 35.3516 128.771 35.3516C125.416 35.3516 122.713 34.231 120.663 31.9897C118.626 29.7339 117.608 26.7456 117.608 23.0249C117.608 19.1577 118.626 16.1182 120.663 13.9062C122.713 11.6797 125.445 10.5664 128.858 10.5664H128.902C131.363 10.5664 133.355 11.1377 134.879 12.2803V17.8613C133.795 17.1143 132.63 16.7407 131.385 16.7407C129.525 16.7407 128.06 17.2974 126.991 18.4106C125.921 19.5093 125.387 20.9888 125.387 22.8491ZM143.294 10.7422L144.107 11.5112V34.187L143.294 35H137.142L136.329 34.187V11.5112L137.142 10.7422H143.294Z" fill="white"/>
<path d="M163.619 28.9795C166.593 28.9795 169.156 28.5986 171.31 27.8369L171.903 28.3862L171.617 33.4619L171.002 34.231C168.849 34.9194 166.219 35.2637 163.114 35.2637C153.329 35.2637 148.443 31.1548 148.458 22.937C148.458 19.2163 149.527 16.2573 151.666 14.0601C153.805 11.8481 156.72 10.6543 160.411 10.4785V16.7407C157.628 17.0776 156.236 18.916 156.236 22.2559V22.7612C156.236 26.9067 158.697 28.9795 163.619 28.9795ZM161.773 16.6748V10.4785C165.011 10.5957 167.582 11.5112 169.486 13.2251C171.39 14.939 172.342 17.1582 172.342 19.8828L171.529 20.6958H165.465L164.652 19.8828C164.652 17.9199 163.692 16.8506 161.773 16.6748Z" fill="white"/>
<path d="M177.462 10.7422H183.636L184.449 11.5552V34.231L183.636 35H177.462L176.649 34.231V11.5552L177.462 10.7422ZM177.879 7.73193L177.022 7.31445C176.48 6.53809 176.209 5.64453 176.209 4.63379C176.209 3.37402 176.612 2.33398 177.418 1.51367C178.224 0.678711 179.271 0.26123 180.56 0.26123C181.82 0.26123 182.853 0.678711 183.658 1.51367C184.479 2.33398 184.889 3.37402 184.889 4.63379C184.889 5.65918 184.632 6.53809 184.12 7.27051L183.175 7.73193H177.879Z" fill="white"/>
<path d="M201.061 29.2432V35.2637C197.281 35.1172 194.242 33.9233 191.942 31.6821C189.657 29.4263 188.514 26.4966 188.514 22.8931C188.514 19.2896 189.657 16.3672 191.942 14.126C194.242 11.8701 197.281 10.6689 201.061 10.5225V16.6748C199.654 16.8506 198.512 17.5098 197.633 18.6523C196.769 19.7949 196.336 21.2378 196.336 22.981C196.336 24.6948 196.769 26.123 197.633 27.2656C198.512 28.4082 199.654 29.0674 201.061 29.2432ZM202.467 10.5225C206.246 10.6689 209.278 11.8628 211.563 14.104C213.863 16.3306 215.013 19.2603 215.013 22.8931C215.013 26.4966 213.863 29.4263 211.563 31.6821C209.278 33.9233 206.246 35.1172 202.467 35.2637V29.2432C203.873 29.0674 205.008 28.4082 205.873 27.2656C206.751 26.123 207.191 24.6948 207.191 22.981C207.191 21.2378 206.759 19.8022 205.895 18.6743C205.045 17.5317 203.902 16.8652 202.467 16.6748V10.5225ZM199.039 7.99561V6.78711L202.335 0.349121L210.289 1.07422V2.32666L204.269 7.99561H199.039Z" fill="white"/>
<path d="M225.912 10.7422L226.703 11.5552V34.231L225.912 35H219.737L218.924 34.231V11.5552L219.737 10.7422H225.912ZM234.811 10.3906C237.477 10.3906 239.615 11.2402 241.227 12.9395C242.853 14.624 243.666 16.8799 243.666 19.707V34.231L242.875 35H236.7L235.887 34.231L235.931 21.4648C235.931 20 235.55 18.8721 234.789 18.0811C234.027 17.2754 232.987 16.8726 231.668 16.8726C230.409 16.8726 229.222 17.1875 228.109 17.8174V12.5C229.911 11.123 232.145 10.4199 234.811 10.3906Z" fill="white"/>
<path d="M9.61279 69.7837H16.8198C17.0835 68.5825 16.915 67.5938 16.3145 66.8174C15.7285 66.0264 14.6958 65.6309 13.2163 65.6309C11.5903 65.6309 10.3525 66.0923 9.50293 67.0151C8.65332 67.9233 8.22852 69.0879 8.22852 70.5088V73.0137C8.22852 76.3096 10.4917 77.9648 15.0181 77.9795C17.772 77.9795 20.3647 77.4961 22.7964 76.5293L23.4336 77.0786L23.0381 82.1543L22.4009 82.8794C20.0571 83.8022 17.3252 84.2637 14.2051 84.2637C9.37109 84.2637 5.87744 83.2896 3.72412 81.3413C1.5708 79.3931 0.494141 76.2583 0.494141 71.937C0.494141 68.0698 1.63672 65.0303 3.92188 62.8184C6.22168 60.5918 9.31982 59.4785 13.2163 59.4785C15.0474 59.4785 16.6807 59.7349 18.1162 60.2476C19.5664 60.7456 20.7236 61.4341 21.5879 62.313C22.4521 63.1772 23.1406 64.2026 23.6533 65.3892C24.166 66.5757 24.415 67.8501 24.4004 69.2124C24.3857 70.5747 24.2319 71.9956 23.939 73.4751L23.082 73.9585H9.61279V69.7837Z" fill="white"/>
<path d="M35.4087 59.7422L36.1997 60.5552V83.231L35.4087 84H29.2344L28.4214 83.231V60.5552L29.2344 59.7422H35.4087ZM44.3076 59.3906C46.9736 59.3906 49.1123 60.2402 50.7236 61.9395C52.3496 63.624 53.1626 65.8799 53.1626 68.707V83.231L52.3716 84H46.1973L45.3843 83.231L45.4282 70.4648C45.4282 69 45.0474 67.8721 44.2856 67.0811C43.5239 66.2754 42.4839 65.8726 41.1655 65.8726C39.9058 65.8726 38.7192 66.1875 37.606 66.8174V61.5C39.4077 60.123 41.6416 59.4199 44.3076 59.3906Z" fill="white"/>
<path d="M77.2007 59.7422L77.9917 60.5552V83.231L77.2007 84H71.0264L70.2134 83.231V60.5552L71.0264 59.7422H77.2007ZM86.0996 59.3906C88.7656 59.3906 90.9043 60.2402 92.5156 61.9395C94.1416 63.624 94.9546 65.8799 94.9546 68.707V83.231L94.1636 84H87.9893L87.1763 83.231L87.2202 70.4648C87.2202 69 86.8394 67.8721 86.0776 67.0811C85.3159 66.2754 84.2759 65.8726 82.9575 65.8726C81.6978 65.8726 80.5112 66.1875 79.3979 66.8174V61.5C81.1997 60.123 83.4336 59.4199 86.0996 59.3906Z" fill="white"/>
<path d="M108.402 69.7837H115.609C115.873 68.5825 115.704 67.5938 115.104 66.8174C114.518 66.0264 113.485 65.6309 112.005 65.6309C110.379 65.6309 109.142 66.0923 108.292 67.0151C107.442 67.9233 107.018 69.0879 107.018 70.5088V73.0137C107.018 76.3096 109.281 77.9648 113.807 77.9795C116.561 77.9795 119.154 77.4961 121.585 76.5293L122.223 77.0786L121.827 82.1543L121.19 82.8794C118.846 83.8022 116.114 84.2637 112.994 84.2637C108.16 84.2637 104.667 83.2896 102.513 81.3413C100.36 79.3931 99.2832 76.2583 99.2832 71.937C99.2832 68.0698 100.426 65.0303 102.711 62.8184C105.011 60.5918 108.109 59.4785 112.005 59.4785C113.836 59.4785 115.47 59.7349 116.905 60.2476C118.355 60.7456 119.513 61.4341 120.377 62.313C121.241 63.1772 121.93 64.2026 122.442 65.3892C122.955 66.5757 123.204 67.8501 123.189 69.2124C123.175 70.5747 123.021 71.9956 122.728 73.4751L121.871 73.9585H108.402V69.7837Z" fill="white"/>
<path d="M136.922 82.6597C133.509 82.6597 130.807 81.6416 128.814 79.6055C126.822 77.5547 125.826 74.7275 125.826 71.124C125.826 67.4619 126.771 64.6055 128.661 62.5547C130.55 60.5039 133.172 59.4785 136.527 59.4785C139.046 59.4785 141.068 60.0791 142.591 61.2803V66.9053C141.507 66.1582 140.248 65.7847 138.812 65.7847C137.186 65.7847 135.912 66.2388 134.989 67.147C134.066 68.0552 133.604 69.4102 133.604 71.2119C133.604 72.8965 134.059 74.1709 134.967 75.0352C135.89 75.8848 137.171 76.3096 138.812 76.3096C140.248 76.3096 141.529 75.8994 142.657 75.0791V80.77C141.09 82.0298 139.178 82.6597 136.922 82.6597ZM151.82 60.5552L151.864 80.77C151.864 84.813 150.604 87.8672 148.084 89.9326C145.565 92.0127 142.042 93.0527 137.516 93.0527C134.542 93.0527 131.561 92.6719 128.573 91.9102L127.936 91.1631V85.9775L128.573 85.4941C131.634 86.5195 134.432 87.0249 136.966 87.0103C139.164 87.0103 140.899 86.4902 142.174 85.4502C143.448 84.4248 144.085 82.938 144.085 80.9897L144.042 60.5552L144.854 59.7422H151.007L151.82 60.5552Z" fill="white"/>
<path d="M167.354 78.2432V84.2637C163.575 84.1172 160.536 82.9233 158.236 80.6821C155.951 78.4263 154.808 75.4966 154.808 71.8931C154.808 68.2896 155.951 65.3672 158.236 63.126C160.536 60.8701 163.575 59.6689 167.354 59.5225V65.6748C165.948 65.8506 164.806 66.5098 163.927 67.6523C163.062 68.7949 162.63 70.2378 162.63 71.981C162.63 73.6948 163.062 75.123 163.927 76.2656C164.806 77.4082 165.948 78.0674 167.354 78.2432ZM168.761 59.5225C172.54 59.6689 175.572 60.8628 177.857 63.104C180.157 65.3306 181.307 68.2603 181.307 71.8931C181.307 75.4966 180.157 78.4263 177.857 80.6821C175.572 82.9233 172.54 84.1172 168.761 84.2637V78.2432C170.167 78.0674 171.302 77.4082 172.167 76.2656C173.045 75.123 173.485 73.6948 173.485 71.981C173.485 70.2378 173.053 68.8022 172.188 67.6743C171.339 66.5317 170.196 65.8652 168.761 65.6748V59.5225Z" fill="white"/>
<path d="M199.127 77.9795C202.101 77.9795 204.664 77.5986 206.817 76.8369L207.411 77.3862L207.125 82.4619L206.51 83.231C204.356 83.9194 201.727 84.2637 198.622 84.2637C188.836 84.2637 183.951 80.1548 183.966 71.937C183.966 68.2163 185.035 65.2573 187.174 63.0601C189.312 60.8481 192.228 59.6543 195.919 59.4785V65.7407C193.136 66.0776 191.744 67.916 191.744 71.2559V71.7612C191.744 75.9067 194.205 77.9795 199.127 77.9795ZM197.281 65.6748V59.4785C200.519 59.5957 203.089 60.5112 204.994 62.2251C206.898 63.939 207.85 66.1582 207.85 68.8828L207.037 69.6958H200.973L200.16 68.8828C200.16 66.9199 199.2 65.8506 197.281 65.6748Z" fill="white"/>
<path d="M212.97 59.7422H219.144L219.957 60.5552V83.231L219.144 84H212.97L212.157 83.231V60.5552L212.97 59.7422ZM213.387 56.7319L212.53 56.3145C211.988 55.5381 211.717 54.6445 211.717 53.6338C211.717 52.374 212.12 51.334 212.926 50.5137C213.731 49.6787 214.779 49.2612 216.068 49.2612C217.328 49.2612 218.36 49.6787 219.166 50.5137C219.986 51.334 220.396 52.374 220.396 53.6338C220.396 54.6592 220.14 55.5381 219.627 56.2705L218.683 56.7319H213.387Z" fill="white"/>
<path d="M236.568 78.2432V84.2637C232.789 84.1172 229.75 82.9233 227.45 80.6821C225.165 78.4263 224.022 75.4966 224.022 71.8931C224.022 68.2896 225.165 65.3672 227.45 63.126C229.75 60.8701 232.789 59.6689 236.568 59.5225V65.6748C235.162 65.8506 234.02 66.5098 233.141 67.6523C232.276 68.7949 231.844 70.2378 231.844 71.981C231.844 73.6948 232.276 75.123 233.141 76.2656C234.02 77.4082 235.162 78.0674 236.568 78.2432ZM237.975 59.5225C241.754 59.6689 244.786 60.8628 247.071 63.104C249.371 65.3306 250.521 68.2603 250.521 71.8931C250.521 75.4966 249.371 78.4263 247.071 80.6821C244.786 82.9233 241.754 84.1172 237.975 84.2637V78.2432C239.381 78.0674 240.516 77.4082 241.38 76.2656C242.259 75.123 242.699 73.6948 242.699 71.981C242.699 70.2378 242.267 68.8022 241.402 67.6743C240.553 66.5317 239.41 65.8652 237.975 65.6748V59.5225Z" fill="white"/>
<path d="M260.782 66.8174C260.782 67.2422 261.214 67.6084 262.079 67.916C262.958 68.2236 264.02 68.5386 265.265 68.8608C266.51 69.1685 267.762 69.564 269.022 70.0474C270.282 70.5308 271.344 71.3071 272.208 72.3765C273.072 73.4312 273.504 74.7422 273.504 76.3096C273.504 78.7119 272.699 80.5942 271.087 81.9565C269.491 83.3188 267.191 84.0732 264.188 84.2197V78.0674C265.477 77.9795 266.122 77.54 266.122 76.749C266.122 76.2949 265.697 75.8994 264.847 75.5625C263.998 75.2109 262.958 74.8667 261.727 74.5298C260.497 74.1782 259.266 73.7534 258.036 73.2554C256.805 72.7427 255.758 71.9663 254.894 70.9263C254.044 69.8862 253.619 68.6338 253.619 67.1689C253.619 62.042 257.171 59.4785 264.276 59.4785C265.389 59.4785 266.554 59.5737 267.77 59.7642C268.985 59.9546 269.923 60.145 270.582 60.3354L271.571 60.6431L272.208 61.5439L271.571 66.4438L270.67 67.125C268.18 66.1289 265.785 65.6309 263.485 65.6309C261.683 65.6455 260.782 66.041 260.782 66.8174ZM262.804 78.1113V84.2637C261.178 84.2637 259.64 84.1538 258.189 83.9341C256.739 83.7144 255.699 83.4946 255.069 83.2749L254.125 82.9673L253.443 82.0664L254.212 77.1226L255.157 76.4854C257.472 77.4521 260.021 77.9941 262.804 78.1113Z" fill="white"/>
<path d="M8.71191 120.849C8.71191 122.768 9.24658 124.284 10.3159 125.397C11.3853 126.511 12.8501 127.067 14.7104 127.067C16.0288 127.067 17.1934 126.708 18.2041 125.991V131.506C16.6074 132.736 14.5713 133.352 12.0957 133.352C8.74121 133.352 6.03857 132.231 3.98779 129.99C1.95166 127.734 0.933594 124.746 0.933594 121.025C0.933594 117.158 1.95166 114.118 3.98779 111.906C6.03857 109.68 8.77051 108.566 12.1836 108.566H12.2275C14.6885 108.566 16.6807 109.138 18.2041 110.28V115.861C17.1201 115.114 15.9556 114.741 14.7104 114.741C12.8501 114.741 11.3853 115.297 10.3159 116.411C9.24658 117.509 8.71191 118.989 8.71191 120.849ZM26.6196 108.742L27.4326 109.511V132.187L26.6196 133H20.4673L19.6543 132.187V109.511L20.4673 108.742H26.6196Z" fill="white"/>
<path d="M44.9229 100.415L45.7139 99.6016H51.8882L52.7012 100.415V124.453C52.7012 126.225 53.5728 127.111 55.3159 127.111C56.0044 127.111 56.6929 127.031 57.3813 126.87L57.9526 127.507V132.319L57.2495 133C56.1069 133.176 54.7812 133.264 53.2725 133.264C50.7236 133.264 48.6948 132.546 47.186 131.11C45.6772 129.675 44.9229 127.617 44.9229 124.936V100.415Z" fill="white"/>
<path d="M68.6973 120.849C68.6973 122.768 69.2319 124.284 70.3013 125.397C71.3706 126.511 72.8354 127.067 74.6958 127.067C76.0142 127.067 77.1787 126.708 78.1895 125.991V131.506C76.5928 132.736 74.5566 133.352 72.0811 133.352C68.7266 133.352 66.0239 132.231 63.9731 129.99C61.937 127.734 60.9189 124.746 60.9189 121.025C60.9189 117.158 61.937 114.118 63.9731 111.906C66.0239 109.68 68.7559 108.566 72.1689 108.566H72.2129C74.6738 108.566 76.666 109.138 78.1895 110.28V115.861C77.1055 115.114 75.9409 114.741 74.6958 114.741C72.8354 114.741 71.3706 115.297 70.3013 116.411C69.2319 117.509 68.6973 118.989 68.6973 120.849ZM86.605 108.742L87.418 109.511V132.187L86.605 133H80.4526L79.6396 132.187V109.511L80.4526 108.742H86.605Z" fill="white"/>
<path d="M129.386 120.805L129.43 132.187L128.617 133H122.442L121.629 132.187L121.673 119.465C121.673 118 121.292 116.872 120.531 116.081C119.769 115.275 118.729 114.873 117.411 114.873C116.122 114.873 114.92 115.188 113.807 115.817V110.5C115.609 109.123 117.857 108.42 120.553 108.391C124.068 108.391 126.588 109.738 128.111 112.434C128.961 114.147 129.386 116.938 129.386 120.805ZM111.654 108.742L112.467 109.555V132.187L111.654 133H105.479L104.667 132.187V109.555L105.479 108.742H111.654ZM130.77 115.62C130.77 114.697 130.624 113.833 130.331 113.027C130.052 112.207 129.767 111.635 129.474 111.313L129.056 110.764C131.253 109.167 133.941 108.376 137.12 108.391C139.786 108.391 141.925 109.24 143.536 110.939C145.162 112.624 145.975 114.88 145.975 117.707V132.187L145.184 133H139.01L138.197 132.187L138.241 119.465C138.241 118 137.86 116.872 137.098 116.081C136.336 115.275 135.296 114.873 133.978 114.873C132.923 114.858 131.854 115.107 130.77 115.62Z" fill="white"/>
<path d="M159.247 118.784H166.454C166.717 117.583 166.549 116.594 165.948 115.817C165.362 115.026 164.33 114.631 162.85 114.631C161.224 114.631 159.986 115.092 159.137 116.015C158.287 116.923 157.862 118.088 157.862 119.509V122.014C157.862 125.31 160.125 126.965 164.652 126.979C167.406 126.979 169.999 126.496 172.43 125.529L173.067 126.079L172.672 131.154L172.035 131.879C169.691 132.802 166.959 133.264 163.839 133.264C159.005 133.264 155.511 132.29 153.358 130.341C151.205 128.393 150.128 125.258 150.128 120.937C150.128 117.07 151.271 114.03 153.556 111.818C155.855 109.592 158.954 108.479 162.85 108.479C164.681 108.479 166.314 108.735 167.75 109.248C169.2 109.746 170.357 110.434 171.222 111.313C172.086 112.177 172.774 113.203 173.287 114.389C173.8 115.576 174.049 116.85 174.034 118.212C174.02 119.575 173.866 120.996 173.573 122.475L172.716 122.958H159.247V118.784Z" fill="white"/>
<path d="M195.392 100.371L196.183 99.6016H202.357L203.17 100.371V132.187L202.357 133H196.183L195.392 132.187V100.371ZM187.965 108.566C190.426 108.566 192.418 109.138 193.941 110.28V115.861C192.857 115.114 191.686 114.741 190.426 114.741C188.565 114.741 187.101 115.297 186.031 116.411C184.977 117.509 184.449 118.989 184.449 120.849C184.449 122.768 184.977 124.284 186.031 125.397C187.101 126.511 188.565 127.067 190.426 127.067C191.715 127.067 192.872 126.708 193.897 125.991V131.55C192.301 132.751 190.272 133.352 187.811 133.352C184.457 133.352 181.761 132.231 179.725 129.99C177.689 127.734 176.671 124.746 176.671 121.025C176.671 117.187 177.696 114.155 179.747 111.928C181.812 109.687 184.552 108.566 187.965 108.566Z" fill="white"/>
<path d="M209.41 108.742H215.584L216.397 109.555V132.231L215.584 133H209.41L208.597 132.231V109.555L209.41 108.742ZM209.828 105.732L208.971 105.314C208.429 104.538 208.158 103.645 208.158 102.634C208.158 101.374 208.561 100.334 209.366 99.5137C210.172 98.6787 211.219 98.2612 212.508 98.2612C213.768 98.2612 214.801 98.6787 215.606 99.5137C216.427 100.334 216.837 101.374 216.837 102.634C216.837 103.659 216.581 104.538 216.068 105.271L215.123 105.732H209.828Z" fill="white"/>
<path d="M239.645 100.371L240.436 99.6016H246.61L247.423 100.371V132.187L246.61 133H240.436L239.645 132.187V100.371ZM232.218 108.566C234.679 108.566 236.671 109.138 238.194 110.28V115.861C237.11 115.114 235.938 114.741 234.679 114.741C232.818 114.741 231.354 115.297 230.284 116.411C229.229 117.509 228.702 118.989 228.702 120.849C228.702 122.768 229.229 124.284 230.284 125.397C231.354 126.511 232.818 127.067 234.679 127.067C235.968 127.067 237.125 126.708 238.15 125.991V131.55C236.554 132.751 234.525 133.352 232.064 133.352C228.709 133.352 226.014 132.231 223.978 129.99C221.942 127.734 220.924 124.746 220.924 121.025C220.924 117.187 221.949 114.155 224 111.928C226.065 109.687 228.805 108.566 232.218 108.566Z" fill="white"/>
<path d="M259.508 120.849C259.508 122.768 260.042 124.284 261.112 125.397C262.181 126.511 263.646 127.067 265.506 127.067C266.825 127.067 267.989 126.708 269 125.991V131.506C267.403 132.736 265.367 133.352 262.892 133.352C259.537 133.352 256.834 132.231 254.784 129.99C252.748 127.734 251.729 124.746 251.729 121.025C251.729 117.158 252.748 114.118 254.784 111.906C256.834 109.68 259.566 108.566 262.979 108.566H263.023C265.484 108.566 267.477 109.138 269 110.28V115.861C267.916 115.114 266.751 114.741 265.506 114.741C263.646 114.741 262.181 115.297 261.112 116.411C260.042 117.509 259.508 118.989 259.508 120.849ZM277.416 108.742L278.229 109.511V132.187L277.416 133H271.263L270.45 132.187V109.511L271.263 108.742H277.416Z" fill="white"/>
<path d="M19.2148 149.371L20.0059 148.602H26.1802L26.9932 149.371V181.187L26.1802 182H20.0059L19.2148 181.187V149.371ZM11.7881 157.566C14.249 157.566 16.2412 158.138 17.7646 159.28V164.861C16.6807 164.114 15.5088 163.741 14.249 163.741C12.3887 163.741 10.9238 164.297 9.85449 165.411C8.7998 166.509 8.27246 167.989 8.27246 169.849C8.27246 171.768 8.7998 173.284 9.85449 174.397C10.9238 175.511 12.3887 176.067 14.249 176.067C15.5381 176.067 16.6953 175.708 17.7207 174.991V180.55C16.124 181.751 14.0952 182.352 11.6343 182.352C8.27979 182.352 5.58447 181.231 3.54834 178.99C1.51221 176.734 0.494141 173.746 0.494141 170.025C0.494141 166.187 1.51953 163.155 3.57031 160.928C5.63574 158.687 8.375 157.566 11.7881 157.566Z" fill="white"/>
<path d="M39.979 167.784H47.186C47.4497 166.583 47.2812 165.594 46.6807 164.817C46.0947 164.026 45.062 163.631 43.5825 163.631C41.9565 163.631 40.7188 164.092 39.8691 165.015C39.0195 165.923 38.5947 167.088 38.5947 168.509V171.014C38.5947 174.31 40.8579 175.965 45.3843 175.979C48.1382 175.979 50.731 175.496 53.1626 174.529L53.7998 175.079L53.4043 180.154L52.7671 180.879C50.4233 181.802 47.6914 182.264 44.5713 182.264C39.7373 182.264 36.2437 181.29 34.0903 179.341C31.937 177.393 30.8604 174.258 30.8604 169.937C30.8604 166.07 32.0029 163.03 34.2881 160.818C36.5879 158.592 39.686 157.479 43.5825 157.479C45.4136 157.479 47.0469 157.735 48.4824 158.248C49.9326 158.746 51.0898 159.434 51.9541 160.313C52.8184 161.177 53.5068 162.203 54.0195 163.389C54.5322 164.576 54.7812 165.85 54.7666 167.212C54.752 168.575 54.5981 169.996 54.3052 171.475L53.4482 171.958H39.979V167.784Z" fill="white"/>
<path d="M86.561 176.375L86.7808 180.55L86.0557 181.407C84.5029 182.037 82.5986 182.352 80.3428 182.352C77.9404 182.352 75.9922 181.685 74.498 180.352C73.0186 179.019 72.2788 177.122 72.2788 174.661V164.949H80.0352V173.453C80.0352 174.419 80.2329 175.108 80.6284 175.518C81.0386 175.914 81.7417 176.111 82.7378 176.111C83.8218 176.111 84.8252 175.928 85.748 175.562L86.561 176.375ZM85.5723 157.742L86.3633 158.555V162.796L85.5723 163.543H69.686L68.917 162.796V158.555L69.686 157.742H72.2788L75.0254 152.117H79.2222L80.0352 152.93V157.742H85.5723Z" fill="white"/>
<path d="M114.312 157.742L115.125 158.511V181.187L114.312 182H108.16L107.347 181.187V158.511L108.16 157.742H114.312ZM105.897 174.705V180.418C104.125 181.766 101.905 182.461 99.2393 182.505C96.5732 182.505 94.4272 181.656 92.8013 179.957C91.1899 178.257 90.3843 176.001 90.3843 173.189V158.511L91.1753 157.742H97.3496L98.1626 158.511L98.1187 171.014C98.1187 172.479 98.4995 173.614 99.2612 174.419C100.023 175.21 101.063 175.606 102.381 175.606C103.583 175.606 104.754 175.306 105.897 174.705Z" fill="white"/>
<path d="M137.867 158.379L144.481 182H139.251L138.351 181.363L130.023 158.555L130.836 157.742H137.054L137.867 158.379ZM154.5 157.742L155.27 158.555L146.986 181.363L146.129 182H145.909L143.536 173.409L147.799 158.379L148.656 157.742H154.5Z" fill="white"/>
<path d="M160.367 157.742H166.542L167.354 158.555V181.231L166.542 182H160.367L159.554 181.231V158.555L160.367 157.742ZM160.785 154.732L159.928 154.314C159.386 153.538 159.115 152.645 159.115 151.634C159.115 150.374 159.518 149.334 160.323 148.514C161.129 147.679 162.176 147.261 163.465 147.261C164.725 147.261 165.758 147.679 166.563 148.514C167.384 149.334 167.794 150.374 167.794 151.634C167.794 152.659 167.538 153.538 167.025 154.271L166.08 154.732H160.785Z" fill="white"/>
<path d="M190.602 149.371L191.393 148.602H197.567L198.38 149.371V181.187L197.567 182H191.393L190.602 181.187V149.371ZM183.175 157.566C185.636 157.566 187.628 158.138 189.151 159.28V164.861C188.067 164.114 186.896 163.741 185.636 163.741C183.775 163.741 182.311 164.297 181.241 165.411C180.187 166.509 179.659 167.989 179.659 169.849C179.659 171.768 180.187 173.284 181.241 174.397C182.311 175.511 183.775 176.067 185.636 176.067C186.925 176.067 188.082 175.708 189.107 174.991V180.55C187.511 181.751 185.482 182.352 183.021 182.352C179.667 182.352 176.971 181.231 174.935 178.99C172.899 176.734 171.881 173.746 171.881 170.025C171.881 166.187 172.906 163.155 174.957 160.928C177.022 158.687 179.762 157.566 183.175 157.566Z" fill="white"/>
<path d="M210.465 169.849C210.465 171.768 211 173.284 212.069 174.397C213.138 175.511 214.603 176.067 216.463 176.067C217.782 176.067 218.946 175.708 219.957 174.991V180.506C218.36 181.736 216.324 182.352 213.849 182.352C210.494 182.352 207.792 181.231 205.741 178.99C203.705 176.734 202.687 173.746 202.687 170.025C202.687 166.158 203.705 163.118 205.741 160.906C207.792 158.68 210.523 157.566 213.937 157.566H213.98C216.441 157.566 218.434 158.138 219.957 159.28V164.861C218.873 164.114 217.708 163.741 216.463 163.741C214.603 163.741 213.138 164.297 212.069 165.411C211 166.509 210.465 167.989 210.465 169.849ZM228.373 157.742L229.186 158.511V181.187L228.373 182H222.22L221.407 181.187V158.511L222.22 157.742H228.373Z" fill="white"/>
</svg>
