<svg width="191" height="48" viewBox="0 0 191 48" fill="none" xmlns="http://www.w3.org/2000/svg">
<path d="M21.7705 19.0469H23.3975L26.1182 26.5391L28.832 19.0469H30.4658L26.7676 29H25.4619L21.7705 19.0469ZM20.9502 19.0469H22.543L22.8301 25.9307V29H20.9502V19.0469ZM29.6865 19.0469H31.2861V29H29.4062V25.9307L29.6865 19.0469ZM37.2812 20.5576L34.4443 29H32.4551L36.1738 19.0469H37.4453L37.2812 20.5576ZM39.6533 29L36.8027 20.5576L36.6318 19.0469H37.9102L41.6494 29H39.6533ZM39.5234 25.3018V26.7852H34.1846V25.3018H39.5234ZM36.1807 18.459L37.5205 16.3809H39.5166L37.6504 18.459H36.1807ZM47.8838 26.416C47.8838 26.2246 47.8542 26.0537 47.7949 25.9033C47.7402 25.7484 47.6377 25.6094 47.4873 25.4863C47.3415 25.3587 47.1341 25.2357 46.8652 25.1172C46.6009 24.9941 46.2591 24.8665 45.8398 24.7344C45.375 24.5885 44.9421 24.4245 44.541 24.2422C44.14 24.0599 43.7868 23.848 43.4814 23.6064C43.1807 23.3649 42.946 23.0869 42.7773 22.7725C42.6087 22.4535 42.5244 22.0843 42.5244 21.665C42.5244 21.2549 42.611 20.8812 42.7842 20.5439C42.9619 20.2067 43.2126 19.9173 43.5361 19.6758C43.8597 19.4297 44.2402 19.2406 44.6777 19.1084C45.1198 18.9762 45.6074 18.9102 46.1406 18.9102C46.8789 18.9102 47.5169 19.0446 48.0547 19.3135C48.597 19.5824 49.0163 19.9469 49.3125 20.4072C49.6087 20.8675 49.7568 21.3848 49.7568 21.959H47.8838C47.8838 21.6491 47.8177 21.3757 47.6855 21.1387C47.5579 20.9017 47.362 20.7148 47.0977 20.5781C46.8379 20.4414 46.5098 20.373 46.1133 20.373C45.7305 20.373 45.4115 20.43 45.1562 20.5439C44.9056 20.6579 44.7165 20.8128 44.5889 21.0088C44.4658 21.2048 44.4043 21.4235 44.4043 21.665C44.4043 21.8473 44.4476 22.0114 44.5342 22.1572C44.6208 22.2985 44.7507 22.4329 44.9238 22.5605C45.097 22.6836 45.3112 22.7998 45.5664 22.9092C45.8262 23.014 46.127 23.1188 46.4688 23.2236C47.0156 23.3877 47.4941 23.57 47.9043 23.7705C48.319 23.971 48.6631 24.1989 48.9365 24.4541C49.2145 24.7093 49.4219 24.9964 49.5586 25.3154C49.6999 25.6344 49.7705 25.9967 49.7705 26.4023C49.7705 26.8307 49.6862 27.2135 49.5176 27.5508C49.349 27.888 49.1074 28.1751 48.793 28.4121C48.4785 28.6491 48.1003 28.8291 47.6582 28.9521C47.2207 29.0752 46.7308 29.1367 46.1885 29.1367C45.7054 29.1367 45.2269 29.0729 44.7529 28.9453C44.2835 28.8132 43.8574 28.6172 43.4746 28.3574C43.0918 28.0931 42.7865 27.7604 42.5586 27.3594C42.3307 26.9538 42.2168 26.4798 42.2168 25.9375H44.1035C44.1035 26.252 44.1536 26.5208 44.2539 26.7441C44.3587 26.9629 44.5046 27.1429 44.6914 27.2842C44.8828 27.4209 45.1061 27.5212 45.3613 27.585C45.6165 27.6488 45.8923 27.6807 46.1885 27.6807C46.5713 27.6807 46.8857 27.6283 47.1318 27.5234C47.3825 27.4141 47.5693 27.2637 47.6924 27.0723C47.82 26.8809 47.8838 26.6621 47.8838 26.416ZM56.709 19.0469V29H54.8291V19.0469H56.709ZM66.7373 19.0469V29H64.8506L60.6191 22.0957V29H58.7393V19.0469H60.6191L64.8643 25.958V19.0469H66.7373ZM70.5312 19.0469V29H68.6514V19.0469H70.5312ZM74.5439 23.3467V24.8301H70.0391V23.3467H74.5439ZM75.0703 19.0469V20.5303H70.0391V19.0469H75.0703ZM84.4082 23.7705V24.2832C84.4082 25.0352 84.3079 25.7119 84.1074 26.3135C83.9069 26.9105 83.6221 27.4186 83.2529 27.8379C82.8838 28.2572 82.444 28.5785 81.9336 28.8018C81.4232 29.0251 80.8558 29.1367 80.2314 29.1367C79.6162 29.1367 79.0511 29.0251 78.5361 28.8018C78.0257 28.5785 77.5837 28.2572 77.21 27.8379C76.8363 27.4186 76.5469 26.9105 76.3418 26.3135C76.1367 25.7119 76.0342 25.0352 76.0342 24.2832V23.7705C76.0342 23.014 76.1367 22.3372 76.3418 21.7402C76.5469 21.1432 76.834 20.6351 77.2031 20.2158C77.5723 19.792 78.012 19.4684 78.5225 19.2451C79.0374 19.0218 79.6025 18.9102 80.2178 18.9102C80.8421 18.9102 81.4095 19.0218 81.9199 19.2451C82.4303 19.4684 82.8701 19.792 83.2393 20.2158C83.613 20.6351 83.9001 21.1432 84.1006 21.7402C84.3057 22.3372 84.4082 23.014 84.4082 23.7705ZM82.5078 24.2832V23.7568C82.5078 23.2145 82.4577 22.7383 82.3574 22.3281C82.2572 21.9134 82.109 21.5648 81.9131 21.2822C81.7171 20.9997 81.4756 20.7878 81.1885 20.6465C80.9014 20.5007 80.5778 20.4277 80.2178 20.4277C79.8532 20.4277 79.5296 20.5007 79.2471 20.6465C78.9691 20.7878 78.7321 20.9997 78.5361 21.2822C78.3402 21.5648 78.1898 21.9134 78.085 22.3281C77.9847 22.7383 77.9346 23.2145 77.9346 23.7568V24.2832C77.9346 24.821 77.9847 25.2972 78.085 25.7119C78.1898 26.1266 78.3402 26.4775 78.5361 26.7646C78.7367 27.0472 78.9782 27.2614 79.2607 27.4072C79.5433 27.5531 79.8669 27.626 80.2314 27.626C80.596 27.626 80.9196 27.5531 81.2021 27.4072C81.4847 27.2614 81.7217 27.0472 81.9131 26.7646C82.109 26.4775 82.2572 26.1266 82.3574 25.7119C82.4577 25.2972 82.5078 24.821 82.5078 24.2832ZM86.001 19.0469H89.6172C90.3737 19.0469 91.0231 19.1608 91.5654 19.3887C92.1077 19.6165 92.5247 19.9538 92.8164 20.4004C93.1081 20.847 93.2539 21.3962 93.2539 22.0479C93.2539 22.5628 93.1628 23.0094 92.9805 23.3877C92.7982 23.766 92.5407 24.0827 92.208 24.3379C91.8799 24.5931 91.4925 24.7936 91.0459 24.9395L90.458 25.2402H87.2656L87.252 23.7568H89.6377C90.0251 23.7568 90.3464 23.6885 90.6016 23.5518C90.8568 23.415 91.0482 23.2259 91.1758 22.9844C91.3079 22.7428 91.374 22.4671 91.374 22.1572C91.374 21.8245 91.3102 21.5374 91.1826 21.2959C91.055 21.0498 90.8613 20.8607 90.6016 20.7285C90.3418 20.5964 90.0137 20.5303 89.6172 20.5303H87.8809V29H86.001V19.0469ZM91.6201 29L89.3164 24.543L91.3057 24.5361L93.6367 28.9043V29H91.6201ZM95.7217 19.0469H97.3486L100.069 26.5391L102.783 19.0469H104.417L100.719 29H99.4131L95.7217 19.0469ZM94.9014 19.0469H96.4941L96.7812 25.9307V29H94.9014V19.0469ZM103.638 19.0469H105.237V29H103.357V25.9307L103.638 19.0469ZM111.232 20.5576L108.396 29H106.406L110.125 19.0469H111.396L111.232 20.5576ZM113.604 29L110.754 20.5576L110.583 19.0469H111.861L115.601 29H113.604ZM113.475 25.3018V26.7852H108.136V25.3018H113.475ZM122.327 25.7256H124.207C124.157 26.391 123.972 26.9811 123.653 27.4961C123.334 28.0065 122.89 28.4076 122.32 28.6992C121.751 28.9909 121.06 29.1367 120.249 29.1367C119.625 29.1367 119.062 29.0273 118.561 28.8086C118.064 28.5853 117.638 28.2686 117.282 27.8584C116.931 27.4437 116.662 26.9469 116.476 26.3682C116.289 25.7848 116.195 25.1309 116.195 24.4062V23.6475C116.195 22.9229 116.291 22.2689 116.482 21.6855C116.674 21.1022 116.947 20.6055 117.303 20.1953C117.663 19.7806 118.093 19.4616 118.595 19.2383C119.101 19.015 119.666 18.9033 120.29 18.9033C121.101 18.9033 121.787 19.0537 122.348 19.3545C122.908 19.6507 123.343 20.0586 123.653 20.5781C123.963 21.0977 124.15 21.6947 124.214 22.3691H122.334C122.298 21.9499 122.206 21.5944 122.061 21.3027C121.919 21.0111 121.705 20.79 121.418 20.6396C121.135 20.4847 120.759 20.4072 120.29 20.4072C119.925 20.4072 119.604 20.4756 119.326 20.6123C119.053 20.749 118.825 20.9541 118.643 21.2275C118.46 21.4964 118.324 21.8337 118.232 22.2393C118.141 22.6403 118.096 23.1051 118.096 23.6338V24.4062C118.096 24.9121 118.137 25.3656 118.219 25.7666C118.301 26.1676 118.428 26.5072 118.602 26.7852C118.775 27.0632 118.998 27.2751 119.271 27.4209C119.545 27.5667 119.871 27.6396 120.249 27.6396C120.709 27.6396 121.083 27.5667 121.37 27.4209C121.662 27.2751 121.883 27.0609 122.033 26.7783C122.188 26.4958 122.286 26.1449 122.327 25.7256ZM127.666 19.0469V29H125.786V19.0469H127.666ZM137.756 23.7705V24.2832C137.756 25.0352 137.656 25.7119 137.455 26.3135C137.255 26.9105 136.97 27.4186 136.601 27.8379C136.231 28.2572 135.792 28.5785 135.281 28.8018C134.771 29.0251 134.203 29.1367 133.579 29.1367C132.964 29.1367 132.399 29.0251 131.884 28.8018C131.373 28.5785 130.931 28.2572 130.558 27.8379C130.184 27.4186 129.895 26.9105 129.689 26.3135C129.484 25.7119 129.382 25.0352 129.382 24.2832V23.7705C129.382 23.014 129.484 22.3372 129.689 21.7402C129.895 21.1432 130.182 20.6351 130.551 20.2158C130.92 19.792 131.36 19.4684 131.87 19.2451C132.385 19.0218 132.95 18.9102 133.565 18.9102C134.19 18.9102 134.757 19.0218 135.268 19.2451C135.778 19.4684 136.218 19.792 136.587 20.2158C136.961 20.6351 137.248 21.1432 137.448 21.7402C137.653 22.3372 137.756 23.014 137.756 23.7705ZM135.855 24.2832V23.7568C135.855 23.2145 135.805 22.7383 135.705 22.3281C135.605 21.9134 135.457 21.5648 135.261 21.2822C135.065 20.9997 134.823 20.7878 134.536 20.6465C134.249 20.5007 133.925 20.4277 133.565 20.4277C133.201 20.4277 132.877 20.5007 132.595 20.6465C132.317 20.7878 132.08 20.9997 131.884 21.2822C131.688 21.5648 131.537 21.9134 131.433 22.3281C131.332 22.7383 131.282 23.2145 131.282 23.7568V24.2832C131.282 24.821 131.332 25.2972 131.433 25.7119C131.537 26.1266 131.688 26.4775 131.884 26.7646C132.084 27.0472 132.326 27.2614 132.608 27.4072C132.891 27.5531 133.215 27.626 133.579 27.626C133.944 27.626 134.267 27.5531 134.55 27.4072C134.832 27.2614 135.069 27.0472 135.261 26.7646C135.457 26.4775 135.605 26.1266 135.705 25.7119C135.805 25.2972 135.855 24.821 135.855 24.2832ZM132.69 18.4521L134.03 16.374H136.026L134.16 18.4521H132.69ZM147.347 19.0469V29H145.46L141.229 22.0957V29H139.349V19.0469H141.229L145.474 25.958V19.0469H147.347Z" fill="white"/>
<mask id="mask0_549_2576" style="mask-type:alpha" maskUnits="userSpaceOnUse" x="149" y="12" width="24" height="24">
<rect x="173" y="36" width="24" height="24" transform="rotate(180 173 36)" fill="#D9D9D9"/>
</mask>
<g mask="url(#mask0_549_2576)">
<path d="M163 14L173 24L163 34L161.225 32.225L169.45 24L161.225 15.775L163 14Z" fill="white"/>
</g>
<rect x="0.5" y="0.5" width="190" height="47" rx="23.5" stroke="white"/>
</svg>
