<svg width="251" height="71" viewBox="0 0 251 71" fill="none" xmlns="http://www.w3.org/2000/svg">
<g id="LOGO_Blanco" clip-path="url(#clip0_1021_258)">
<g id="Group">
<path id="Vector" d="M47.306 46.1935C45.3458 47.5675 42.7739 48.2576 39.584 48.2576C35.4951 48.2576 32.4363 47.1572 30.4074 44.9501C28.3786 42.743 27.3611 39.7774 27.3611 36.0409V35.4503C27.3611 34.1571 27.4859 32.9572 27.7419 31.8505C27.9978 30.7377 28.3786 29.7056 28.8843 28.7544C29.9018 26.8706 31.3313 25.4158 33.1791 24.3713C35.0269 23.333 37.2181 22.8108 39.7588 22.8108C41.8438 22.8108 43.6416 23.1465 45.1523 23.8242C46.6568 24.4956 47.8928 25.4096 48.8541 26.5597C49.8093 27.7099 50.5147 29.0155 50.9704 30.4766C51.4198 31.9376 51.6446 33.4421 51.6446 34.984V37.5517H32.8608C33.0855 39.5163 33.7971 41.0333 34.9957 42.1026C36.1943 43.172 37.7924 43.7067 39.7962 43.7067C41.2632 43.7067 42.4493 43.4269 43.3482 42.8611C44.2472 42.3016 44.9151 41.4996 45.3334 40.4613H51.295C50.5896 42.9047 49.2599 44.8133 47.2998 46.1873M35.1393 28.7668C33.9532 29.8175 33.2103 31.3034 32.8982 33.2121H46.0949C45.8952 31.3594 45.2834 29.8921 44.2534 28.8104C43.2234 27.7286 41.7377 27.1877 39.79 27.1877C37.8423 27.1877 36.3254 27.7161 35.1393 28.7668Z" fill="white"/>
<path id="Vector_2" d="M61.3267 47.6296H55.7458V23.4075H60.4402L60.9459 28.2507C61.5951 26.5969 62.6126 25.2727 63.9922 24.2904C65.3718 23.308 67.1073 22.8169 69.1923 22.8169C72.1263 22.8169 74.3611 23.7184 75.8968 25.5151C77.4324 27.3119 78.2003 29.7117 78.2003 32.7208V47.6358H72.6194V34.07C72.6194 32.1053 72.2386 30.5386 71.477 29.376C70.7155 28.2134 69.3483 27.629 67.3757 27.629C65.4031 27.629 63.7925 28.2942 62.8062 29.6309C61.8198 30.9614 61.3267 32.7581 61.3267 35.0025V47.642V47.6296Z" fill="white"/>
<path id="Vector_3" d="M96.5658 47.6295H93.4383C92.3084 47.6295 91.3034 47.5549 90.4107 47.3995C89.5243 47.2441 88.7814 47.0265 88.1884 46.7467C86.9773 46.1312 86.1408 45.1178 85.6726 43.7127C85.2044 42.3076 84.9734 40.3865 84.9734 37.9432V28.2942H80.2354V23.6189H82.389C82.7823 23.6189 83.1194 23.6002 83.4066 23.5567C83.6875 23.5132 83.9309 23.451 84.1245 23.364C84.5177 23.165 84.7986 22.8168 84.9672 22.3133C85.1357 21.8097 85.2481 21.0636 85.3043 20.0813C85.3293 19.5466 85.3542 18.9746 85.3667 18.3529C85.3792 17.7374 85.3854 18.1913 85.3854 17.8245H90.1235V23.4137H96.5533V28.3004H90.1235V37.0231C90.1235 37.8126 90.1547 38.5027 90.2109 39.112C90.2671 39.7151 90.3483 40.2125 90.4669 40.6041C90.6604 41.3875 91.1036 41.9035 91.7778 42.1398C92.452 42.3823 93.4695 42.5004 94.8242 42.5004H96.5596V47.642L96.5658 47.6295Z" fill="white"/>
<path id="Vector_4" d="M100.499 47.6297V23.4077H104.981L105.699 29.0964C106.179 27.1007 107.072 25.621 108.383 24.6511C109.694 23.6812 111.492 23.1963 113.777 23.1963H115.425V28.798H113.015C112.054 28.798 111.211 28.8601 110.474 28.9907C109.738 29.115 109.12 29.3078 108.614 29.5564C107.596 30.0352 106.897 30.831 106.523 31.9376C106.142 33.0443 105.948 34.5426 105.948 36.4264V47.6297H100.492H100.499Z" fill="white"/>
<path id="Vector_5" d="M135.357 42.9916C134.733 44.5646 133.771 45.8142 132.46 46.7406C131.149 47.667 129.489 48.1332 127.491 48.1332C124.589 48.1332 122.429 47.2628 121.018 45.522C119.607 43.7812 118.902 41.4063 118.902 38.4034V23.4076H124.445V36.8864C124.445 38.7702 124.801 40.3058 125.5 41.4995C126.205 42.6932 127.504 43.2901 129.389 43.2901C131.274 43.2901 132.604 42.6124 133.534 41.2446C134.464 39.8831 134.932 38.136 134.932 35.9973V23.4014H140.52V47.6234H135.863L135.357 42.9916Z" fill="white"/>
<path id="Vector_6" d="M151.307 47.6296H145.763V23.4075H150.414L150.92 27.8279C151.569 26.3109 152.536 25.0986 153.816 24.1847C155.102 23.2707 156.7 22.8169 158.617 22.8169C160.702 22.8169 162.362 23.2645 163.611 24.166C164.853 25.0675 165.739 26.2985 166.276 27.8714C166.894 26.3296 167.868 25.0986 169.198 24.1847C170.521 23.2707 172.169 22.8169 174.148 22.8169C176.995 22.8169 179.148 23.6749 180.603 25.3846C182.057 27.1005 182.782 29.4568 182.782 32.4597V47.6234H177.238V33.9767C177.238 32.068 176.857 30.5262 176.096 29.3636C175.334 28.201 174.023 27.6165 172.163 27.6165C170.303 27.6165 169.06 28.2072 168.274 29.3884C167.481 30.5697 167.088 32.068 167.088 33.8959V47.6296H161.588V33.7715C161.588 33.212 161.551 32.6711 161.482 32.1489C161.413 31.6266 161.289 31.1292 161.12 30.6505C160.839 29.7242 160.34 28.9843 159.622 28.4372C158.904 27.8901 157.905 27.6165 156.638 27.6165C154.834 27.6165 153.492 28.2693 152.618 29.575C151.744 30.8806 151.307 32.5716 151.307 34.6544V47.6296Z" fill="white"/>
<path id="Vector_7" d="M12.0169 48.2202C4.5196 48.2202 0 44.3345 0 36.3206V34.9217C0 27.1813 4.86294 22.8169 12.3602 22.8169C18.9711 22.8169 23.2847 25.9876 24.2086 32.3975H18.9024C18.4592 29.1584 16.3992 27.2808 12.3602 27.2808C7.73451 27.2808 5.13137 29.805 5.13137 35.1269V36.1527C5.13137 41.0643 7.66584 43.5884 12.2853 43.5884C16.6364 43.5884 18.5154 41.5741 18.9648 38.0303H24.3397C23.5531 44.3718 19.9199 48.2264 12.0106 48.2264" fill="white"/>
<path id="Vector_8" d="M162.862 53.1132C164.26 53.1132 165.396 53.5297 166.27 54.3752C167.15 55.2146 167.581 56.2715 167.581 57.546C167.581 58.8205 167.15 59.8836 166.264 60.723C165.384 61.5623 164.254 61.9788 162.862 61.9788H160.589V65.7775H157.137V53.1132H162.855H162.862ZM160.589 56.1969V58.9138H162.674C163.08 58.9138 163.417 58.777 163.704 58.5034C163.985 58.2361 164.129 57.9128 164.129 57.5522C164.129 57.1916 163.985 56.8745 163.704 56.6072C163.417 56.3336 163.08 56.1969 162.674 56.1969H160.589ZM147.93 62.0348C148.622 62.7249 149.49 63.0668 150.526 63.0668C151.176 63.0668 151.781 62.9363 152.355 62.6627C152.93 62.3892 153.342 62.1218 153.598 61.8421L153.985 61.4379L155.976 63.6139C155.932 63.6823 155.864 63.7756 155.77 63.8937C155.676 64.0118 155.464 64.2108 155.133 64.503C154.796 64.7952 154.434 65.0501 154.047 65.2739C153.66 65.4977 153.148 65.6967 152.512 65.877C151.875 66.0573 151.213 66.1443 150.526 66.1443C148.554 66.1443 146.881 65.4853 145.501 64.1673C144.128 62.8492 143.441 61.2763 143.441 59.4484C143.441 57.6206 144.128 56.0414 145.501 54.7234C146.881 53.4116 148.548 52.7463 150.526 52.7463C151.207 52.7463 151.856 52.8334 152.474 53.0137C153.086 53.194 153.598 53.3991 153.991 53.6478C154.391 53.8965 154.74 54.1452 155.04 54.3877C155.339 54.6364 155.552 54.8477 155.689 55.0218L155.889 55.2829L153.797 57.4527C153.766 57.403 153.716 57.3408 153.654 57.2724C153.591 57.1978 153.454 57.0673 153.248 56.887C153.03 56.7005 152.811 56.5326 152.58 56.3896C152.355 56.2466 152.05 56.116 151.675 55.9979C151.3 55.8798 150.92 55.8238 150.533 55.8238C149.49 55.8238 148.629 56.1658 147.936 56.8559C147.243 57.5398 146.893 58.404 146.893 59.436C146.893 60.4681 147.243 61.3385 147.936 62.0223L147.93 62.0348ZM138.066 62.3332C138.528 61.8483 138.759 61.2452 138.759 60.5302V53.1132H142.211V60.5302C142.211 62.1218 141.662 63.4523 140.563 64.5279C139.465 65.5972 138.079 66.1381 136.406 66.1381C134.733 66.1381 133.347 65.5972 132.248 64.5279C131.15 63.4523 130.6 62.1218 130.6 60.5302V53.1132H134.046V60.5302C134.046 61.2452 134.283 61.8421 134.745 62.3332C135.207 62.8244 135.763 63.0606 136.406 63.0606C137.049 63.0606 137.604 62.8181 138.066 62.3332ZM124.639 53.1132C126.031 53.1132 127.167 53.5297 128.041 54.3752C128.915 55.2146 129.352 56.2715 129.352 57.546C129.352 58.8205 128.908 59.8836 128.035 60.723C127.161 61.5623 126.024 61.9788 124.639 61.9788H122.366V65.7775H118.914V53.1132H124.639ZM122.366 56.1969V58.9138H124.451C124.857 58.9138 125.194 58.777 125.481 58.5034C125.762 58.2361 125.906 57.9128 125.906 57.5522C125.906 57.1916 125.762 56.8745 125.481 56.6072C125.194 56.3336 124.857 56.1969 124.451 56.1969H122.366Z" fill="white"/>
<g id="Group_2">
<path id="Vector_9" d="M231.292 28.773C231.636 29.2145 232.116 29.4507 232.678 29.4569C233.24 29.4569 233.721 29.2207 234.07 28.7793L250.625 7.51034C251.044 6.96944 251.119 6.28556 250.813 5.67006C250.513 5.05456 249.907 4.55718 249.233 4.69396L230.512 8.42426C228.864 8.75377 227.297 10.1278 226.348 11.5142L223.489 15.7108C222.852 16.6433 222.796 17.806 223.489 18.7012L231.286 28.773H231.292Z" fill="white"/>
<path id="Vector_10" d="M226.186 34.2069L202.676 2.17607C201.678 0.81451 200.105 -0.404054 198.5 0.124405L186.315 4.15934C185.666 4.37695 185.048 4.51994 184.742 5.12922C184.436 5.7385 184.511 6.41617 184.916 6.96328L206.066 35.2203L184.916 62.9488C184.504 63.4897 184.436 64.1736 184.742 64.7829C185.048 65.3922 185.703 65.4481 186.315 65.7528L196.328 70.7949C197.839 71.5596 199.462 70.0551 200.51 68.7308L226.186 36.3269C226.685 35.699 226.654 34.8473 226.186 34.2007V34.2069Z" fill="white"/>
<path id="Vector_11" d="M250.625 62.4018L234.07 41.6613C233.721 41.2261 233.24 40.9836 232.678 40.9836C232.116 40.9836 231.636 41.2199 231.292 41.6675L223.495 51.7393C222.802 52.6346 222.671 53.9651 223.495 54.7298L228.995 59.8279L249.233 65.2181C249.895 65.3922 250.507 64.8513 250.813 64.2421C251.112 63.6266 251.05 62.9364 250.625 62.4018Z" fill="white"/>
</g>
</g>
</g>
<defs>
<clipPath id="clip0_1021_258">
<rect width="251" height="71" fill="white"/>
</clipPath>
</defs>
</svg>
