<svg width="24" height="24" viewBox="0 0 24 24" fill="none" xmlns="http://www.w3.org/2000/svg">
<g id="mail">
<mask id="mask0_549_2630" style="mask-type:alpha" maskUnits="userSpaceOnUse" x="0" y="0" width="24" height="24">
<rect id="Bounding box" width="24" height="24" fill="#D9D9D9"/>
</mask>
<g mask="url(#mask0_549_2630)">
<path id="mail_2" d="M4.00012 20C3.45012 20 2.97929 19.8042 2.58762 19.4125C2.19596 19.0208 2.00012 18.55 2.00012 18V6C2.00012 5.45 2.19596 4.97917 2.58762 4.5875C2.97929 4.19583 3.45012 4 4.00012 4H20.0001C20.5501 4 21.021 4.19583 21.4126 4.5875C21.8043 4.97917 22.0001 5.45 22.0001 6V18C22.0001 18.55 21.8043 19.0208 21.4126 19.4125C21.021 19.8042 20.5501 20 20.0001 20H4.00012ZM12.0001 13L4.00012 8V18H20.0001V8L12.0001 13ZM12.0001 11L20.0001 6H4.00012L12.0001 11ZM4.00012 8V6V18V8Z" fill="white"/>
</g>
</g>
</svg>
