<svg width="48" height="48" viewBox="0 0 48 48" fill="none" xmlns="http://www.w3.org/2000/svg">
<g clip-path="url(#clip0_561_4907)">
<path d="M23.9813 0.00368395C28.2653 0.00368395 32.5492 0.00184197 36.8332 0.00368395C42.4192 0.0073679 46.8542 3.70789 47.8506 9.20434C47.9574 9.78825 47.9998 10.3814 47.9998 10.98C47.9942 16.7601 48.0053 22.5402 47.9942 28.3204C47.9832 33.8573 43.9424 38.4659 38.4613 39.2046C37.8903 39.2819 37.3102 39.3096 36.7337 39.3114C32.8918 39.3206 29.0499 39.3206 25.208 39.3114C24.8157 39.3114 24.4915 39.4072 24.1637 39.6264C20.2518 42.2457 16.3307 44.8539 12.4151 47.4677C11.8294 47.8582 11.2198 48.1142 10.4996 47.9484C9.36696 47.6887 8.70024 46.799 8.69288 45.5004C8.68367 43.6143 8.66893 41.7262 8.70393 39.8401C8.71498 39.2709 8.56579 39.0277 7.98196 38.8675C3.72196 37.6997 0.618591 34.0305 0.0826387 29.6245C0.0273859 29.1658 0.00160119 28.7109 0.00160119 28.2522C0.00160119 22.5237 -0.0039241 16.7933 0.00160119 11.0647C0.00896824 5.55724 3.81957 1.05914 9.25277 0.138148C9.87345 0.0331555 10.4996 0 11.1314 0C15.4153 0.0073679 19.6992 0.00368395 23.9832 0.00368395H23.9813ZM23.9924 4.45389C19.7103 4.45389 15.4264 4.44653 11.1443 4.45758C8.19744 4.46495 5.78105 6.15219 4.82886 8.83227C4.54707 9.62616 4.4513 10.4532 4.4513 11.2876C4.44577 16.7104 4.44946 22.1313 4.44761 27.5541C4.44761 28.0643 4.46787 28.5709 4.52129 29.0792C4.8528 32.2345 7.48836 34.6917 10.6801 34.8041C12.3046 34.8612 13.1831 35.7582 13.1923 37.381C13.1978 38.5709 13.1923 39.7609 13.1978 40.9508C13.1978 41.1129 13.1168 41.3321 13.2881 41.4205C13.4575 41.5089 13.592 41.3173 13.7264 41.2289C16.6272 39.2985 19.5316 37.3737 22.4195 35.4248C23.0531 34.9975 23.7143 34.8004 24.4731 34.8023C28.5692 34.8133 32.6653 34.8096 36.7613 34.8059C37.2199 34.8059 37.6785 34.8244 38.1334 34.7359C41.3455 34.1152 43.5243 31.5438 43.539 28.2577C43.563 22.5292 43.5574 16.8006 43.539 11.0739C43.5335 9.23013 42.8962 7.62025 41.5536 6.31429C40.2238 5.02122 38.6123 4.46126 36.7908 4.45758C32.5253 4.45021 28.2598 4.45574 23.9924 4.45574V4.45389ZM30.4551 11.8476C29.8492 8.6057 26.6501 6.19456 23.4233 6.55374C19.9239 6.9424 17.3528 9.79378 17.4339 13.1922C17.4689 14.6621 18.8723 15.6789 20.2794 15.2552C21.2592 14.9587 21.8099 14.1943 21.8836 13.0228C21.9517 11.9397 22.7161 11.1495 23.8303 11.0058C24.718 10.8916 25.6739 11.5308 25.9944 12.4517C26.3056 13.3469 26.0073 14.2274 25.1398 14.9145C24.2539 15.6163 23.4657 16.4065 22.8818 17.3809C21.9701 18.9023 21.5557 20.5417 21.832 22.3063C21.9757 23.2236 22.8008 23.9346 23.683 24.0304C24.7199 24.1428 25.6021 23.6602 26.0183 22.7557C26.2228 22.3118 26.2688 21.8403 26.2486 21.3614C26.2154 20.573 26.4917 19.9007 26.9797 19.2984C27.2928 18.9115 27.6759 18.6058 28.059 18.2963C29.689 16.9775 30.5141 15.2608 30.5656 13.172C30.5693 12.7244 30.5343 12.2878 30.4533 11.8494L30.4551 11.8476ZM26.2393 28.3627C26.2301 27.1415 25.2024 26.1192 23.9887 26.1229C22.775 26.1266 21.751 27.1599 21.7547 28.3756C21.7583 29.5747 22.7603 30.562 23.9795 30.5676C25.2337 30.5731 26.2504 29.5803 26.2393 28.3627Z" fill="url(#paint0_linear_561_4907)"/>
</g>
<defs>
<linearGradient id="paint0_linear_561_4907" x1="3.83615" y1="11.3337" x2="56.9042" y2="42.804" gradientUnits="userSpaceOnUse">
<stop offset="0.21" stop-color="#3737F8"/>
<stop offset="0.95" stop-color="#EB268E"/>
</linearGradient>
<clipPath id="clip0_561_4907">
<rect width="48" height="48" fill="white"/>
</clipPath>
</defs>
</svg>
